<?xml version="1.0" encoding="utf-8" standalone="no"?>
<!DOCTYPE svg PUBLIC "-//W3C//DTD SVG 1.1//EN"
  "http://www.w3.org/Graphics/SVG/1.1/DTD/svg11.dtd">
<svg xmlns:xlink="http://www.w3.org/1999/xlink" width="1152pt" height="360pt" viewBox="0 0 1152 360" xmlns="http://www.w3.org/2000/svg" version="1.1">
 <metadata>
  <rdf:RDF xmlns:dc="http://purl.org/dc/elements/1.1/" xmlns:cc="http://creativecommons.org/ns#" xmlns:rdf="http://www.w3.org/1999/02/22-rdf-syntax-ns#">
   <cc:Work>
    <dc:type rdf:resource="http://purl.org/dc/dcmitype/StillImage"/>
    <dc:date>2026-04-08T15:03:57.723006</dc:date>
    <dc:format>image/svg+xml</dc:format>
    <dc:creator>
     <cc:Agent>
      <dc:title>Matplotlib v3.8.4, https://matplotlib.org/</dc:title>
     </cc:Agent>
    </dc:creator>
   </cc:Work>
  </rdf:RDF>
 </metadata>
 <defs>
  <style type="text/css">*{stroke-linejoin: round; stroke-linecap: butt}</style>
 </defs>
 <g id="figure_1">
  <g id="patch_1">
   <path d="M 0 360 
L 1152 360 
L 1152 0 
L 0 0 
z
" style="fill: #ffffff"/>
  </g>
  <g id="axes_1">
   <g id="patch_2">
    <path d="M 66.98 318.04 
L 584.84 318.04 
L 584.84 25.44 
L 66.98 25.44 
z
" style="fill: #ffffff"/>
   </g>
   <g id="patch_3">
    <path d="M 90.519091 318.04 
L 98.112346 318.04 
L 98.112346 317.201978 
L 90.519091 317.201978 
z
" clip-path="url(#p8f0275ba2e)" style="fill: #2ecc71; opacity: 0.8"/>
   </g>
   <g id="patch_4">
    <path d="M 112.214106 318.04 
L 119.807361 318.04 
L 119.807361 317.406938 
L 112.214106 317.406938 
z
" clip-path="url(#p8f0275ba2e)" style="fill: #2ecc71; opacity: 0.8"/>
   </g>
   <g id="patch_5">
    <path d="M 133.90912 318.04 
L 141.502375 318.04 
L 141.502375 314.043943 
L 133.90912 314.043943 
z
" clip-path="url(#p8f0275ba2e)" style="fill: #2ecc71; opacity: 0.8"/>
   </g>
   <g id="patch_6">
    <path d="M 155.604135 318.04 
L 163.19739 318.04 
L 163.19739 316.87744 
L 155.604135 316.87744 
z
" clip-path="url(#p8f0275ba2e)" style="fill: #2ecc71; opacity: 0.8"/>
   </g>
   <g id="patch_7">
    <path d="M 177.29915 318.04 
L 184.892405 318.04 
L 184.892405 317.017479 
L 177.29915 317.017479 
z
" clip-path="url(#p8f0275ba2e)" style="fill: #2ecc71; opacity: 0.8"/>
   </g>
   <g id="patch_8">
    <path d="M 198.994164 318.04 
L 206.587419 318.04 
L 206.587419 316.637156 
L 198.994164 316.637156 
z
" clip-path="url(#p8f0275ba2e)" style="fill: #2ecc71; opacity: 0.8"/>
   </g>
   <g id="patch_9">
    <path d="M 220.689179 318.04 
L 228.282434 318.04 
L 228.282434 300.831754 
L 220.689179 300.831754 
z
" clip-path="url(#p8f0275ba2e)" style="fill: #2ecc71; opacity: 0.8"/>
   </g>
   <g id="patch_10">
    <path d="M 242.384194 318.04 
L 249.977449 318.04 
L 249.977449 314.292194 
L 242.384194 314.292194 
z
" clip-path="url(#p8f0275ba2e)" style="fill: #2ecc71; opacity: 0.8"/>
   </g>
   <g id="patch_11">
    <path d="M 264.079208 318.04 
L 271.672463 318.04 
L 271.672463 317.301444 
L 264.079208 317.301444 
z
" clip-path="url(#p8f0275ba2e)" style="fill: #2ecc71; opacity: 0.8"/>
   </g>
   <g id="patch_12">
    <path d="M 285.774223 318.04 
L 293.367478 318.04 
L 293.367478 317.128108 
L 285.774223 317.128108 
z
" clip-path="url(#p8f0275ba2e)" style="fill: #2ecc71; opacity: 0.8"/>
   </g>
   <g id="patch_13">
    <path d="M 307.469238 318.04 
L 315.062493 318.04 
L 315.062493 317.161557 
L 307.469238 317.161557 
z
" clip-path="url(#p8f0275ba2e)" style="fill: #2ecc71; opacity: 0.8"/>
   </g>
   <g id="patch_14">
    <path d="M 329.164252 318.04 
L 336.757507 318.04 
L 336.757507 313.456271 
L 329.164252 313.456271 
z
" clip-path="url(#p8f0275ba2e)" style="fill: #2ecc71; opacity: 0.8"/>
   </g>
   <g id="patch_15">
    <path d="M 350.859267 318.04 
L 358.452522 318.04 
L 358.452522 316.979236 
L 350.859267 316.979236 
z
" clip-path="url(#p8f0275ba2e)" style="fill: #2ecc71; opacity: 0.8"/>
   </g>
   <g id="patch_16">
    <path d="M 372.554282 318.04 
L 380.147537 318.04 
L 380.147537 316.535699 
L 372.554282 316.535699 
z
" clip-path="url(#p8f0275ba2e)" style="fill: #2ecc71; opacity: 0.8"/>
   </g>
   <g id="patch_17">
    <path d="M 394.249296 318.04 
L 401.842551 318.04 
L 401.842551 316.255568 
L 394.249296 316.255568 
z
" clip-path="url(#p8f0275ba2e)" style="fill: #2ecc71; opacity: 0.8"/>
   </g>
   <g id="patch_18">
    <path d="M 415.944311 318.04 
L 423.537566 318.04 
L 423.537566 317.641448 
L 415.944311 317.641448 
z
" clip-path="url(#p8f0275ba2e)" style="fill: #2ecc71; opacity: 0.8"/>
   </g>
   <g id="patch_19">
    <path d="M 437.639326 318.04 
L 445.232581 318.04 
L 445.232581 317.285706 
L 437.639326 317.285706 
z
" clip-path="url(#p8f0275ba2e)" style="fill: #2ecc71; opacity: 0.8"/>
   </g>
   <g id="patch_20">
    <path d="M 459.33434 318.04 
L 466.927595 318.04 
L 466.927595 306.144454 
L 459.33434 306.144454 
z
" clip-path="url(#p8f0275ba2e)" style="fill: #2ecc71; opacity: 0.8"/>
   </g>
   <g id="patch_21">
    <path d="M 481.029355 318.04 
L 488.62261 318.04 
L 488.62261 312.024241 
L 481.029355 312.024241 
z
" clip-path="url(#p8f0275ba2e)" style="fill: #2ecc71; opacity: 0.8"/>
   </g>
   <g id="patch_22">
    <path d="M 502.72437 318.04 
L 510.317625 318.04 
L 510.317625 316.487493 
L 502.72437 316.487493 
z
" clip-path="url(#p8f0275ba2e)" style="fill: #2ecc71; opacity: 0.8"/>
   </g>
   <g id="patch_23">
    <path d="M 524.419384 318.04 
L 532.012639 318.04 
L 532.012639 315.008353 
L 524.419384 315.008353 
z
" clip-path="url(#p8f0275ba2e)" style="fill: #2ecc71; opacity: 0.8"/>
   </g>
   <g id="patch_24">
    <path d="M 546.114399 318.04 
L 553.707654 318.04 
L 553.707654 316.542626 
L 546.114399 316.542626 
z
" clip-path="url(#p8f0275ba2e)" style="fill: #2ecc71; opacity: 0.8"/>
   </g>
   <g id="patch_25">
    <path d="M 98.112346 318.04 
L 105.705601 318.04 
L 105.705601 316.88641 
L 98.112346 316.88641 
z
" clip-path="url(#p8f0275ba2e)" style="fill: #e74c3c; opacity: 0.8"/>
   </g>
   <g id="patch_26">
    <path d="M 119.807361 318.04 
L 127.400616 318.04 
L 127.400616 316.783817 
L 119.807361 316.783817 
z
" clip-path="url(#p8f0275ba2e)" style="fill: #e74c3c; opacity: 0.8"/>
   </g>
   <g id="patch_27">
    <path d="M 141.502375 318.04 
L 149.09563 318.04 
L 149.09563 308.947866 
L 141.502375 308.947866 
z
" clip-path="url(#p8f0275ba2e)" style="fill: #e74c3c; opacity: 0.8"/>
   </g>
   <g id="patch_28">
    <path d="M 163.19739 318.04 
L 170.790645 318.04 
L 170.790645 316.912212 
L 163.19739 316.912212 
z
" clip-path="url(#p8f0275ba2e)" style="fill: #e74c3c; opacity: 0.8"/>
   </g>
   <g id="patch_29">
    <path d="M 184.892405 318.04 
L 192.48566 318.04 
L 192.48566 315.516663 
L 184.892405 315.516663 
z
" clip-path="url(#p8f0275ba2e)" style="fill: #e74c3c; opacity: 0.8"/>
   </g>
   <g id="patch_30">
    <path d="M 206.587419 318.04 
L 214.180674 318.04 
L 214.180674 316.425937 
L 206.587419 316.425937 
z
" clip-path="url(#p8f0275ba2e)" style="fill: #e74c3c; opacity: 0.8"/>
   </g>
   <g id="patch_31">
    <path d="M 228.282434 318.04 
L 235.875689 318.04 
L 235.875689 39.373333 
L 228.282434 39.373333 
z
" clip-path="url(#p8f0275ba2e)" style="fill: #e74c3c; opacity: 0.8"/>
   </g>
   <g id="patch_32">
    <path d="M 249.977449 318.04 
L 257.570704 318.04 
L 257.570704 310.459543 
L 249.977449 310.459543 
z
" clip-path="url(#p8f0275ba2e)" style="fill: #e74c3c; opacity: 0.8"/>
   </g>
   <g id="patch_33">
    <path d="M 271.672463 318.04 
L 279.265718 318.04 
L 279.265718 317.461928 
L 271.672463 317.461928 
z
" clip-path="url(#p8f0275ba2e)" style="fill: #e74c3c; opacity: 0.8"/>
   </g>
   <g id="patch_34">
    <path d="M 293.367478 318.04 
L 300.960733 318.04 
L 300.960733 314.611663 
L 293.367478 314.611663 
z
" clip-path="url(#p8f0275ba2e)" style="fill: #e74c3c; opacity: 0.8"/>
   </g>
   <g id="patch_35">
    <path d="M 315.062493 318.04 
L 322.655748 318.04 
L 322.655748 317.163339 
L 315.062493 317.163339 
z
" clip-path="url(#p8f0275ba2e)" style="fill: #e74c3c; opacity: 0.8"/>
   </g>
   <g id="patch_36">
    <path d="M 336.757507 318.04 
L 344.350762 318.04 
L 344.350762 312.288639 
L 336.757507 312.288639 
z
" clip-path="url(#p8f0275ba2e)" style="fill: #e74c3c; opacity: 0.8"/>
   </g>
   <g id="patch_37">
    <path d="M 358.452522 318.04 
L 366.045777 318.04 
L 366.045777 317.003121 
L 358.452522 317.003121 
z
" clip-path="url(#p8f0275ba2e)" style="fill: #e74c3c; opacity: 0.8"/>
   </g>
   <g id="patch_38">
    <path d="M 380.147537 318.04 
L 387.740792 318.04 
L 387.740792 314.183862 
L 380.147537 314.183862 
z
" clip-path="url(#p8f0275ba2e)" style="fill: #e74c3c; opacity: 0.8"/>
   </g>
   <g id="patch_39">
    <path d="M 401.842551 318.04 
L 409.435806 318.04 
L 409.435806 316.220635 
L 401.842551 316.220635 
z
" clip-path="url(#p8f0275ba2e)" style="fill: #e74c3c; opacity: 0.8"/>
   </g>
   <g id="patch_40">
    <path d="M 423.537566 318.04 
L 431.130821 318.04 
L 431.130821 316.620281 
L 423.537566 316.620281 
z
" clip-path="url(#p8f0275ba2e)" style="fill: #e74c3c; opacity: 0.8"/>
   </g>
   <g id="patch_41">
    <path d="M 445.232581 318.04 
L 452.825836 318.04 
L 452.825836 315.747983 
L 445.232581 315.747983 
z
" clip-path="url(#p8f0275ba2e)" style="fill: #e74c3c; opacity: 0.8"/>
   </g>
   <g id="patch_42">
    <path d="M 466.927595 318.04 
L 474.52085 318.04 
L 474.52085 288.528779 
L 466.927595 288.528779 
z
" clip-path="url(#p8f0275ba2e)" style="fill: #e74c3c; opacity: 0.8"/>
   </g>
   <g id="patch_43">
    <path d="M 488.62261 318.04 
L 496.215865 318.04 
L 496.215865 310.482979 
L 488.62261 310.482979 
z
" clip-path="url(#p8f0275ba2e)" style="fill: #e74c3c; opacity: 0.8"/>
   </g>
   <g id="patch_44">
    <path d="M 510.317625 318.04 
L 517.91088 318.04 
L 517.91088 308.91596 
L 510.317625 308.91596 
z
" clip-path="url(#p8f0275ba2e)" style="fill: #e74c3c; opacity: 0.8"/>
   </g>
   <g id="patch_45">
    <path d="M 532.012639 318.04 
L 539.605894 318.04 
L 539.605894 313.540299 
L 532.012639 313.540299 
z
" clip-path="url(#p8f0275ba2e)" style="fill: #e74c3c; opacity: 0.8"/>
   </g>
   <g id="patch_46">
    <path d="M 553.707654 318.04 
L 561.300909 318.04 
L 561.300909 312.207719 
L 553.707654 312.207719 
z
" clip-path="url(#p8f0275ba2e)" style="fill: #e74c3c; opacity: 0.8"/>
   </g>
   <g id="matplotlib.axis_1">
    <g id="xtick_1">
     <g id="line2d_1">
      <defs>
       <path id="m30d19085a9" d="M 0 0 
L 0 3.5 
" style="stroke: #000000; stroke-width: 0.8"/>
      </defs>
      <g>
       <use xlink:href="#m30d19085a9" x="98.112346" y="318.04" style="stroke: #000000; stroke-width: 0.8"/>
      </g>
     </g>
     <g id="text_1">
      <!-- 0 -->
      <g transform="translate(95.885471 330.358906) scale(0.07 -0.07)">
       <defs>
        <path id="DejaVuSans-30" d="M 2034 4250 
Q 1547 4250 1301 3770 
Q 1056 3291 1056 2328 
Q 1056 1369 1301 889 
Q 1547 409 2034 409 
Q 2525 409 2770 889 
Q 3016 1369 3016 2328 
Q 3016 3291 2770 3770 
Q 2525 4250 2034 4250 
z
M 2034 4750 
Q 2819 4750 3233 4129 
Q 3647 3509 3647 2328 
Q 3647 1150 3233 529 
Q 2819 -91 2034 -91 
Q 1250 -91 836 529 
Q 422 1150 422 2328 
Q 422 3509 836 4129 
Q 1250 4750 2034 4750 
z
" transform="scale(0.015625)"/>
       </defs>
       <use xlink:href="#DejaVuSans-30"/>
      </g>
     </g>
    </g>
    <g id="xtick_2">
     <g id="line2d_2">
      <g>
       <use xlink:href="#m30d19085a9" x="119.807361" y="318.04" style="stroke: #000000; stroke-width: 0.8"/>
      </g>
     </g>
     <g id="text_2">
      <!-- 1 -->
      <g transform="translate(117.580486 330.358906) scale(0.07 -0.07)">
       <defs>
        <path id="DejaVuSans-31" d="M 794 531 
L 1825 531 
L 1825 4091 
L 703 3866 
L 703 4441 
L 1819 4666 
L 2450 4666 
L 2450 531 
L 3481 531 
L 3481 0 
L 794 0 
L 794 531 
z
" transform="scale(0.015625)"/>
       </defs>
       <use xlink:href="#DejaVuSans-31"/>
      </g>
     </g>
    </g>
    <g id="xtick_3">
     <g id="line2d_3">
      <g>
       <use xlink:href="#m30d19085a9" x="141.502375" y="318.04" style="stroke: #000000; stroke-width: 0.8"/>
      </g>
     </g>
     <g id="text_3">
      <!-- 2 -->
      <g transform="translate(139.2755 330.358906) scale(0.07 -0.07)">
       <defs>
        <path id="DejaVuSans-32" d="M 1228 531 
L 3431 531 
L 3431 0 
L 469 0 
L 469 531 
Q 828 903 1448 1529 
Q 2069 2156 2228 2338 
Q 2531 2678 2651 2914 
Q 2772 3150 2772 3378 
Q 2772 3750 2511 3984 
Q 2250 4219 1831 4219 
Q 1534 4219 1204 4116 
Q 875 4013 500 3803 
L 500 4441 
Q 881 4594 1212 4672 
Q 1544 4750 1819 4750 
Q 2544 4750 2975 4387 
Q 3406 4025 3406 3419 
Q 3406 3131 3298 2873 
Q 3191 2616 2906 2266 
Q 2828 2175 2409 1742 
Q 1991 1309 1228 531 
z
" transform="scale(0.015625)"/>
       </defs>
       <use xlink:href="#DejaVuSans-32"/>
      </g>
     </g>
    </g>
    <g id="xtick_4">
     <g id="line2d_4">
      <g>
       <use xlink:href="#m30d19085a9" x="163.19739" y="318.04" style="stroke: #000000; stroke-width: 0.8"/>
      </g>
     </g>
     <g id="text_4">
      <!-- 3 -->
      <g transform="translate(160.970515 330.358906) scale(0.07 -0.07)">
       <defs>
        <path id="DejaVuSans-33" d="M 2597 2516 
Q 3050 2419 3304 2112 
Q 3559 1806 3559 1356 
Q 3559 666 3084 287 
Q 2609 -91 1734 -91 
Q 1441 -91 1130 -33 
Q 819 25 488 141 
L 488 750 
Q 750 597 1062 519 
Q 1375 441 1716 441 
Q 2309 441 2620 675 
Q 2931 909 2931 1356 
Q 2931 1769 2642 2001 
Q 2353 2234 1838 2234 
L 1294 2234 
L 1294 2753 
L 1863 2753 
Q 2328 2753 2575 2939 
Q 2822 3125 2822 3475 
Q 2822 3834 2567 4026 
Q 2313 4219 1838 4219 
Q 1578 4219 1281 4162 
Q 984 4106 628 3988 
L 628 4550 
Q 988 4650 1302 4700 
Q 1616 4750 1894 4750 
Q 2613 4750 3031 4423 
Q 3450 4097 3450 3541 
Q 3450 3153 3228 2886 
Q 3006 2619 2597 2516 
z
" transform="scale(0.015625)"/>
       </defs>
       <use xlink:href="#DejaVuSans-33"/>
      </g>
     </g>
    </g>
    <g id="xtick_5">
     <g id="line2d_5">
      <g>
       <use xlink:href="#m30d19085a9" x="184.892405" y="318.04" style="stroke: #000000; stroke-width: 0.8"/>
      </g>
     </g>
     <g id="text_5">
      <!-- 4 -->
      <g transform="translate(182.66553 330.358906) scale(0.07 -0.07)">
       <defs>
        <path id="DejaVuSans-34" d="M 2419 4116 
L 825 1625 
L 2419 1625 
L 2419 4116 
z
M 2253 4666 
L 3047 4666 
L 3047 1625 
L 3713 1625 
L 3713 1100 
L 3047 1100 
L 3047 0 
L 2419 0 
L 2419 1100 
L 313 1100 
L 313 1709 
L 2253 4666 
z
" transform="scale(0.015625)"/>
       </defs>
       <use xlink:href="#DejaVuSans-34"/>
      </g>
     </g>
    </g>
    <g id="xtick_6">
     <g id="line2d_6">
      <g>
       <use xlink:href="#m30d19085a9" x="206.587419" y="318.04" style="stroke: #000000; stroke-width: 0.8"/>
      </g>
     </g>
     <g id="text_6">
      <!-- 5 -->
      <g transform="translate(204.360544 330.358906) scale(0.07 -0.07)">
       <defs>
        <path id="DejaVuSans-35" d="M 691 4666 
L 3169 4666 
L 3169 4134 
L 1269 4134 
L 1269 2991 
Q 1406 3038 1543 3061 
Q 1681 3084 1819 3084 
Q 2600 3084 3056 2656 
Q 3513 2228 3513 1497 
Q 3513 744 3044 326 
Q 2575 -91 1722 -91 
Q 1428 -91 1123 -41 
Q 819 9 494 109 
L 494 744 
Q 775 591 1075 516 
Q 1375 441 1709 441 
Q 2250 441 2565 725 
Q 2881 1009 2881 1497 
Q 2881 1984 2565 2268 
Q 2250 2553 1709 2553 
Q 1456 2553 1204 2497 
Q 953 2441 691 2322 
L 691 4666 
z
" transform="scale(0.015625)"/>
       </defs>
       <use xlink:href="#DejaVuSans-35"/>
      </g>
     </g>
    </g>
    <g id="xtick_7">
     <g id="line2d_7">
      <g>
       <use xlink:href="#m30d19085a9" x="228.282434" y="318.04" style="stroke: #000000; stroke-width: 0.8"/>
      </g>
     </g>
     <g id="text_7">
      <!-- 6 -->
      <g transform="translate(226.055559 330.358906) scale(0.07 -0.07)">
       <defs>
        <path id="DejaVuSans-36" d="M 2113 2584 
Q 1688 2584 1439 2293 
Q 1191 2003 1191 1497 
Q 1191 994 1439 701 
Q 1688 409 2113 409 
Q 2538 409 2786 701 
Q 3034 994 3034 1497 
Q 3034 2003 2786 2293 
Q 2538 2584 2113 2584 
z
M 3366 4563 
L 3366 3988 
Q 3128 4100 2886 4159 
Q 2644 4219 2406 4219 
Q 1781 4219 1451 3797 
Q 1122 3375 1075 2522 
Q 1259 2794 1537 2939 
Q 1816 3084 2150 3084 
Q 2853 3084 3261 2657 
Q 3669 2231 3669 1497 
Q 3669 778 3244 343 
Q 2819 -91 2113 -91 
Q 1303 -91 875 529 
Q 447 1150 447 2328 
Q 447 3434 972 4092 
Q 1497 4750 2381 4750 
Q 2619 4750 2861 4703 
Q 3103 4656 3366 4563 
z
" transform="scale(0.015625)"/>
       </defs>
       <use xlink:href="#DejaVuSans-36"/>
      </g>
     </g>
    </g>
    <g id="xtick_8">
     <g id="line2d_8">
      <g>
       <use xlink:href="#m30d19085a9" x="249.977449" y="318.04" style="stroke: #000000; stroke-width: 0.8"/>
      </g>
     </g>
     <g id="text_8">
      <!-- 7 -->
      <g transform="translate(247.750574 330.358906) scale(0.07 -0.07)">
       <defs>
        <path id="DejaVuSans-37" d="M 525 4666 
L 3525 4666 
L 3525 4397 
L 1831 0 
L 1172 0 
L 2766 4134 
L 525 4134 
L 525 4666 
z
" transform="scale(0.015625)"/>
       </defs>
       <use xlink:href="#DejaVuSans-37"/>
      </g>
     </g>
    </g>
    <g id="xtick_9">
     <g id="line2d_9">
      <g>
       <use xlink:href="#m30d19085a9" x="271.672463" y="318.04" style="stroke: #000000; stroke-width: 0.8"/>
      </g>
     </g>
     <g id="text_9">
      <!-- 8 -->
      <g transform="translate(269.445588 330.358906) scale(0.07 -0.07)">
       <defs>
        <path id="DejaVuSans-38" d="M 2034 2216 
Q 1584 2216 1326 1975 
Q 1069 1734 1069 1313 
Q 1069 891 1326 650 
Q 1584 409 2034 409 
Q 2484 409 2743 651 
Q 3003 894 3003 1313 
Q 3003 1734 2745 1975 
Q 2488 2216 2034 2216 
z
M 1403 2484 
Q 997 2584 770 2862 
Q 544 3141 544 3541 
Q 544 4100 942 4425 
Q 1341 4750 2034 4750 
Q 2731 4750 3128 4425 
Q 3525 4100 3525 3541 
Q 3525 3141 3298 2862 
Q 3072 2584 2669 2484 
Q 3125 2378 3379 2068 
Q 3634 1759 3634 1313 
Q 3634 634 3220 271 
Q 2806 -91 2034 -91 
Q 1263 -91 848 271 
Q 434 634 434 1313 
Q 434 1759 690 2068 
Q 947 2378 1403 2484 
z
M 1172 3481 
Q 1172 3119 1398 2916 
Q 1625 2713 2034 2713 
Q 2441 2713 2670 2916 
Q 2900 3119 2900 3481 
Q 2900 3844 2670 4047 
Q 2441 4250 2034 4250 
Q 1625 4250 1398 4047 
Q 1172 3844 1172 3481 
z
" transform="scale(0.015625)"/>
       </defs>
       <use xlink:href="#DejaVuSans-38"/>
      </g>
     </g>
    </g>
    <g id="xtick_10">
     <g id="line2d_10">
      <g>
       <use xlink:href="#m30d19085a9" x="293.367478" y="318.04" style="stroke: #000000; stroke-width: 0.8"/>
      </g>
     </g>
     <g id="text_10">
      <!-- 9 -->
      <g transform="translate(291.140603 330.358906) scale(0.07 -0.07)">
       <defs>
        <path id="DejaVuSans-39" d="M 703 97 
L 703 672 
Q 941 559 1184 500 
Q 1428 441 1663 441 
Q 2288 441 2617 861 
Q 2947 1281 2994 2138 
Q 2813 1869 2534 1725 
Q 2256 1581 1919 1581 
Q 1219 1581 811 2004 
Q 403 2428 403 3163 
Q 403 3881 828 4315 
Q 1253 4750 1959 4750 
Q 2769 4750 3195 4129 
Q 3622 3509 3622 2328 
Q 3622 1225 3098 567 
Q 2575 -91 1691 -91 
Q 1453 -91 1209 -44 
Q 966 3 703 97 
z
M 1959 2075 
Q 2384 2075 2632 2365 
Q 2881 2656 2881 3163 
Q 2881 3666 2632 3958 
Q 2384 4250 1959 4250 
Q 1534 4250 1286 3958 
Q 1038 3666 1038 3163 
Q 1038 2656 1286 2365 
Q 1534 2075 1959 2075 
z
" transform="scale(0.015625)"/>
       </defs>
       <use xlink:href="#DejaVuSans-39"/>
      </g>
     </g>
    </g>
    <g id="xtick_11">
     <g id="line2d_11">
      <g>
       <use xlink:href="#m30d19085a9" x="315.062493" y="318.04" style="stroke: #000000; stroke-width: 0.8"/>
      </g>
     </g>
     <g id="text_11">
      <!-- 10 -->
      <g transform="translate(310.608743 330.358906) scale(0.07 -0.07)">
       <use xlink:href="#DejaVuSans-31"/>
       <use xlink:href="#DejaVuSans-30" x="63.623047"/>
      </g>
     </g>
    </g>
    <g id="xtick_12">
     <g id="line2d_12">
      <g>
       <use xlink:href="#m30d19085a9" x="336.757507" y="318.04" style="stroke: #000000; stroke-width: 0.8"/>
      </g>
     </g>
     <g id="text_12">
      <!-- 11 -->
      <g transform="translate(332.303757 330.358906) scale(0.07 -0.07)">
       <use xlink:href="#DejaVuSans-31"/>
       <use xlink:href="#DejaVuSans-31" x="63.623047"/>
      </g>
     </g>
    </g>
    <g id="xtick_13">
     <g id="line2d_13">
      <g>
       <use xlink:href="#m30d19085a9" x="358.452522" y="318.04" style="stroke: #000000; stroke-width: 0.8"/>
      </g>
     </g>
     <g id="text_13">
      <!-- 12 -->
      <g transform="translate(353.998772 330.358906) scale(0.07 -0.07)">
       <use xlink:href="#DejaVuSans-31"/>
       <use xlink:href="#DejaVuSans-32" x="63.623047"/>
      </g>
     </g>
    </g>
    <g id="xtick_14">
     <g id="line2d_14">
      <g>
       <use xlink:href="#m30d19085a9" x="380.147537" y="318.04" style="stroke: #000000; stroke-width: 0.8"/>
      </g>
     </g>
     <g id="text_14">
      <!-- 13 -->
      <g transform="translate(375.693787 330.358906) scale(0.07 -0.07)">
       <use xlink:href="#DejaVuSans-31"/>
       <use xlink:href="#DejaVuSans-33" x="63.623047"/>
      </g>
     </g>
    </g>
    <g id="xtick_15">
     <g id="line2d_15">
      <g>
       <use xlink:href="#m30d19085a9" x="401.842551" y="318.04" style="stroke: #000000; stroke-width: 0.8"/>
      </g>
     </g>
     <g id="text_15">
      <!-- 14 -->
      <g transform="translate(397.388801 330.358906) scale(0.07 -0.07)">
       <use xlink:href="#DejaVuSans-31"/>
       <use xlink:href="#DejaVuSans-34" x="63.623047"/>
      </g>
     </g>
    </g>
    <g id="xtick_16">
     <g id="line2d_16">
      <g>
       <use xlink:href="#m30d19085a9" x="423.537566" y="318.04" style="stroke: #000000; stroke-width: 0.8"/>
      </g>
     </g>
     <g id="text_16">
      <!-- 15 -->
      <g transform="translate(419.083816 330.358906) scale(0.07 -0.07)">
       <use xlink:href="#DejaVuSans-31"/>
       <use xlink:href="#DejaVuSans-35" x="63.623047"/>
      </g>
     </g>
    </g>
    <g id="xtick_17">
     <g id="line2d_17">
      <g>
       <use xlink:href="#m30d19085a9" x="445.232581" y="318.04" style="stroke: #000000; stroke-width: 0.8"/>
      </g>
     </g>
     <g id="text_17">
      <!-- 16 -->
      <g transform="translate(440.778831 330.358906) scale(0.07 -0.07)">
       <use xlink:href="#DejaVuSans-31"/>
       <use xlink:href="#DejaVuSans-36" x="63.623047"/>
      </g>
     </g>
    </g>
    <g id="xtick_18">
     <g id="line2d_18">
      <g>
       <use xlink:href="#m30d19085a9" x="466.927595" y="318.04" style="stroke: #000000; stroke-width: 0.8"/>
      </g>
     </g>
     <g id="text_18">
      <!-- 17 -->
      <g transform="translate(462.473845 330.358906) scale(0.07 -0.07)">
       <use xlink:href="#DejaVuSans-31"/>
       <use xlink:href="#DejaVuSans-37" x="63.623047"/>
      </g>
     </g>
    </g>
    <g id="xtick_19">
     <g id="line2d_19">
      <g>
       <use xlink:href="#m30d19085a9" x="488.62261" y="318.04" style="stroke: #000000; stroke-width: 0.8"/>
      </g>
     </g>
     <g id="text_19">
      <!-- 18 -->
      <g transform="translate(484.16886 330.358906) scale(0.07 -0.07)">
       <use xlink:href="#DejaVuSans-31"/>
       <use xlink:href="#DejaVuSans-38" x="63.623047"/>
      </g>
     </g>
    </g>
    <g id="xtick_20">
     <g id="line2d_20">
      <g>
       <use xlink:href="#m30d19085a9" x="510.317625" y="318.04" style="stroke: #000000; stroke-width: 0.8"/>
      </g>
     </g>
     <g id="text_20">
      <!-- 19 -->
      <g transform="translate(505.863875 330.358906) scale(0.07 -0.07)">
       <use xlink:href="#DejaVuSans-31"/>
       <use xlink:href="#DejaVuSans-39" x="63.623047"/>
      </g>
     </g>
    </g>
    <g id="xtick_21">
     <g id="line2d_21">
      <g>
       <use xlink:href="#m30d19085a9" x="532.012639" y="318.04" style="stroke: #000000; stroke-width: 0.8"/>
      </g>
     </g>
     <g id="text_21">
      <!-- 20 -->
      <g transform="translate(527.558889 330.358906) scale(0.07 -0.07)">
       <use xlink:href="#DejaVuSans-32"/>
       <use xlink:href="#DejaVuSans-30" x="63.623047"/>
      </g>
     </g>
    </g>
    <g id="xtick_22">
     <g id="line2d_22">
      <g>
       <use xlink:href="#m30d19085a9" x="553.707654" y="318.04" style="stroke: #000000; stroke-width: 0.8"/>
      </g>
     </g>
     <g id="text_22">
      <!-- 21 -->
      <g transform="translate(549.253904 330.358906) scale(0.07 -0.07)">
       <use xlink:href="#DejaVuSans-32"/>
       <use xlink:href="#DejaVuSans-31" x="63.623047"/>
      </g>
     </g>
    </g>
    <g id="text_23">
     <!-- Encoder Neuron (equation index) -->
     <g transform="translate(242.899844 343.413125) scale(0.1 -0.1)">
      <defs>
       <path id="DejaVuSans-45" d="M 628 4666 
L 3578 4666 
L 3578 4134 
L 1259 4134 
L 1259 2753 
L 3481 2753 
L 3481 2222 
L 1259 2222 
L 1259 531 
L 3634 531 
L 3634 0 
L 628 0 
L 628 4666 
z
" transform="scale(0.015625)"/>
       <path id="DejaVuSans-6e" d="M 3513 2113 
L 3513 0 
L 2938 0 
L 2938 2094 
Q 2938 2591 2744 2837 
Q 2550 3084 2163 3084 
Q 1697 3084 1428 2787 
Q 1159 2491 1159 1978 
L 1159 0 
L 581 0 
L 581 3500 
L 1159 3500 
L 1159 2956 
Q 1366 3272 1645 3428 
Q 1925 3584 2291 3584 
Q 2894 3584 3203 3211 
Q 3513 2838 3513 2113 
z
" transform="scale(0.015625)"/>
       <path id="DejaVuSans-63" d="M 3122 3366 
L 3122 2828 
Q 2878 2963 2633 3030 
Q 2388 3097 2138 3097 
Q 1578 3097 1268 2742 
Q 959 2388 959 1747 
Q 959 1106 1268 751 
Q 1578 397 2138 397 
Q 2388 397 2633 464 
Q 2878 531 3122 666 
L 3122 134 
Q 2881 22 2623 -34 
Q 2366 -91 2075 -91 
Q 1284 -91 818 406 
Q 353 903 353 1747 
Q 353 2603 823 3093 
Q 1294 3584 2113 3584 
Q 2378 3584 2631 3529 
Q 2884 3475 3122 3366 
z
" transform="scale(0.015625)"/>
       <path id="DejaVuSans-6f" d="M 1959 3097 
Q 1497 3097 1228 2736 
Q 959 2375 959 1747 
Q 959 1119 1226 758 
Q 1494 397 1959 397 
Q 2419 397 2687 759 
Q 2956 1122 2956 1747 
Q 2956 2369 2687 2733 
Q 2419 3097 1959 3097 
z
M 1959 3584 
Q 2709 3584 3137 3096 
Q 3566 2609 3566 1747 
Q 3566 888 3137 398 
Q 2709 -91 1959 -91 
Q 1206 -91 779 398 
Q 353 888 353 1747 
Q 353 2609 779 3096 
Q 1206 3584 1959 3584 
z
" transform="scale(0.015625)"/>
       <path id="DejaVuSans-64" d="M 2906 2969 
L 2906 4863 
L 3481 4863 
L 3481 0 
L 2906 0 
L 2906 525 
Q 2725 213 2448 61 
Q 2172 -91 1784 -91 
Q 1150 -91 751 415 
Q 353 922 353 1747 
Q 353 2572 751 3078 
Q 1150 3584 1784 3584 
Q 2172 3584 2448 3432 
Q 2725 3281 2906 2969 
z
M 947 1747 
Q 947 1113 1208 752 
Q 1469 391 1925 391 
Q 2381 391 2643 752 
Q 2906 1113 2906 1747 
Q 2906 2381 2643 2742 
Q 2381 3103 1925 3103 
Q 1469 3103 1208 2742 
Q 947 2381 947 1747 
z
" transform="scale(0.015625)"/>
       <path id="DejaVuSans-65" d="M 3597 1894 
L 3597 1613 
L 953 1613 
Q 991 1019 1311 708 
Q 1631 397 2203 397 
Q 2534 397 2845 478 
Q 3156 559 3463 722 
L 3463 178 
Q 3153 47 2828 -22 
Q 2503 -91 2169 -91 
Q 1331 -91 842 396 
Q 353 884 353 1716 
Q 353 2575 817 3079 
Q 1281 3584 2069 3584 
Q 2775 3584 3186 3129 
Q 3597 2675 3597 1894 
z
M 3022 2063 
Q 3016 2534 2758 2815 
Q 2500 3097 2075 3097 
Q 1594 3097 1305 2825 
Q 1016 2553 972 2059 
L 3022 2063 
z
" transform="scale(0.015625)"/>
       <path id="DejaVuSans-72" d="M 2631 2963 
Q 2534 3019 2420 3045 
Q 2306 3072 2169 3072 
Q 1681 3072 1420 2755 
Q 1159 2438 1159 1844 
L 1159 0 
L 581 0 
L 581 3500 
L 1159 3500 
L 1159 2956 
Q 1341 3275 1631 3429 
Q 1922 3584 2338 3584 
Q 2397 3584 2469 3576 
Q 2541 3569 2628 3553 
L 2631 2963 
z
" transform="scale(0.015625)"/>
       <path id="DejaVuSans-20" transform="scale(0.015625)"/>
       <path id="DejaVuSans-4e" d="M 628 4666 
L 1478 4666 
L 3547 763 
L 3547 4666 
L 4159 4666 
L 4159 0 
L 3309 0 
L 1241 3903 
L 1241 0 
L 628 0 
L 628 4666 
z
" transform="scale(0.015625)"/>
       <path id="DejaVuSans-75" d="M 544 1381 
L 544 3500 
L 1119 3500 
L 1119 1403 
Q 1119 906 1312 657 
Q 1506 409 1894 409 
Q 2359 409 2629 706 
Q 2900 1003 2900 1516 
L 2900 3500 
L 3475 3500 
L 3475 0 
L 2900 0 
L 2900 538 
Q 2691 219 2414 64 
Q 2138 -91 1772 -91 
Q 1169 -91 856 284 
Q 544 659 544 1381 
z
M 1991 3584 
L 1991 3584 
z
" transform="scale(0.015625)"/>
       <path id="DejaVuSans-28" d="M 1984 4856 
Q 1566 4138 1362 3434 
Q 1159 2731 1159 2009 
Q 1159 1288 1364 580 
Q 1569 -128 1984 -844 
L 1484 -844 
Q 1016 -109 783 600 
Q 550 1309 550 2009 
Q 550 2706 781 3412 
Q 1013 4119 1484 4856 
L 1984 4856 
z
" transform="scale(0.015625)"/>
       <path id="DejaVuSans-71" d="M 947 1747 
Q 947 1113 1208 752 
Q 1469 391 1925 391 
Q 2381 391 2643 752 
Q 2906 1113 2906 1747 
Q 2906 2381 2643 2742 
Q 2381 3103 1925 3103 
Q 1469 3103 1208 2742 
Q 947 2381 947 1747 
z
M 2906 525 
Q 2725 213 2448 61 
Q 2172 -91 1784 -91 
Q 1150 -91 751 415 
Q 353 922 353 1747 
Q 353 2572 751 3078 
Q 1150 3584 1784 3584 
Q 2172 3584 2448 3432 
Q 2725 3281 2906 2969 
L 2906 3500 
L 3481 3500 
L 3481 -1331 
L 2906 -1331 
L 2906 525 
z
" transform="scale(0.015625)"/>
       <path id="DejaVuSans-61" d="M 2194 1759 
Q 1497 1759 1228 1600 
Q 959 1441 959 1056 
Q 959 750 1161 570 
Q 1363 391 1709 391 
Q 2188 391 2477 730 
Q 2766 1069 2766 1631 
L 2766 1759 
L 2194 1759 
z
M 3341 1997 
L 3341 0 
L 2766 0 
L 2766 531 
Q 2569 213 2275 61 
Q 1981 -91 1556 -91 
Q 1019 -91 701 211 
Q 384 513 384 1019 
Q 384 1609 779 1909 
Q 1175 2209 1959 2209 
L 2766 2209 
L 2766 2266 
Q 2766 2663 2505 2880 
Q 2244 3097 1772 3097 
Q 1472 3097 1187 3025 
Q 903 2953 641 2809 
L 641 3341 
Q 956 3463 1253 3523 
Q 1550 3584 1831 3584 
Q 2591 3584 2966 3190 
Q 3341 2797 3341 1997 
z
" transform="scale(0.015625)"/>
       <path id="DejaVuSans-74" d="M 1172 4494 
L 1172 3500 
L 2356 3500 
L 2356 3053 
L 1172 3053 
L 1172 1153 
Q 1172 725 1289 603 
Q 1406 481 1766 481 
L 2356 481 
L 2356 0 
L 1766 0 
Q 1100 0 847 248 
Q 594 497 594 1153 
L 594 3053 
L 172 3053 
L 172 3500 
L 594 3500 
L 594 4494 
L 1172 4494 
z
" transform="scale(0.015625)"/>
       <path id="DejaVuSans-69" d="M 603 3500 
L 1178 3500 
L 1178 0 
L 603 0 
L 603 3500 
z
M 603 4863 
L 1178 4863 
L 1178 4134 
L 603 4134 
L 603 4863 
z
" transform="scale(0.015625)"/>
       <path id="DejaVuSans-78" d="M 3513 3500 
L 2247 1797 
L 3578 0 
L 2900 0 
L 1881 1375 
L 863 0 
L 184 0 
L 1544 1831 
L 300 3500 
L 978 3500 
L 1906 2253 
L 2834 3500 
L 3513 3500 
z
" transform="scale(0.015625)"/>
       <path id="DejaVuSans-29" d="M 513 4856 
L 1013 4856 
Q 1481 4119 1714 3412 
Q 1947 2706 1947 2009 
Q 1947 1309 1714 600 
Q 1481 -109 1013 -844 
L 513 -844 
Q 928 -128 1133 580 
Q 1338 1288 1338 2009 
Q 1338 2731 1133 3434 
Q 928 4138 513 4856 
z
" transform="scale(0.015625)"/>
      </defs>
      <use xlink:href="#DejaVuSans-45"/>
      <use xlink:href="#DejaVuSans-6e" x="63.183594"/>
      <use xlink:href="#DejaVuSans-63" x="126.5625"/>
      <use xlink:href="#DejaVuSans-6f" x="181.542969"/>
      <use xlink:href="#DejaVuSans-64" x="242.724609"/>
      <use xlink:href="#DejaVuSans-65" x="306.201172"/>
      <use xlink:href="#DejaVuSans-72" x="367.724609"/>
      <use xlink:href="#DejaVuSans-20" x="408.837891"/>
      <use xlink:href="#DejaVuSans-4e" x="440.625"/>
      <use xlink:href="#DejaVuSans-65" x="515.429688"/>
      <use xlink:href="#DejaVuSans-75" x="576.953125"/>
      <use xlink:href="#DejaVuSans-72" x="640.332031"/>
      <use xlink:href="#DejaVuSans-6f" x="679.195312"/>
      <use xlink:href="#DejaVuSans-6e" x="740.376953"/>
      <use xlink:href="#DejaVuSans-20" x="803.755859"/>
      <use xlink:href="#DejaVuSans-28" x="835.542969"/>
      <use xlink:href="#DejaVuSans-65" x="874.556641"/>
      <use xlink:href="#DejaVuSans-71" x="936.080078"/>
      <use xlink:href="#DejaVuSans-75" x="999.556641"/>
      <use xlink:href="#DejaVuSans-61" x="1062.935547"/>
      <use xlink:href="#DejaVuSans-74" x="1124.214844"/>
      <use xlink:href="#DejaVuSans-69" x="1163.423828"/>
      <use xlink:href="#DejaVuSans-6f" x="1191.207031"/>
      <use xlink:href="#DejaVuSans-6e" x="1252.388672"/>
      <use xlink:href="#DejaVuSans-20" x="1315.767578"/>
      <use xlink:href="#DejaVuSans-69" x="1347.554688"/>
      <use xlink:href="#DejaVuSans-6e" x="1375.337891"/>
      <use xlink:href="#DejaVuSans-64" x="1438.716797"/>
      <use xlink:href="#DejaVuSans-65" x="1502.193359"/>
      <use xlink:href="#DejaVuSans-78" x="1561.966797"/>
      <use xlink:href="#DejaVuSans-29" x="1621.146484"/>
     </g>
    </g>
   </g>
   <g id="matplotlib.axis_2">
    <g id="ytick_1">
     <g id="line2d_23">
      <defs>
       <path id="mc326b90af5" d="M 0 0 
L -3.5 0 
" style="stroke: #000000; stroke-width: 0.8"/>
      </defs>
      <g>
       <use xlink:href="#mc326b90af5" x="66.98" y="318.04" style="stroke: #000000; stroke-width: 0.8"/>
      </g>
     </g>
     <g id="text_24">
      <!-- 0.0000 -->
      <g transform="translate(24.989375 321.839219) scale(0.1 -0.1)">
       <defs>
        <path id="DejaVuSans-2e" d="M 684 794 
L 1344 794 
L 1344 0 
L 684 0 
L 684 794 
z
" transform="scale(0.015625)"/>
       </defs>
       <use xlink:href="#DejaVuSans-30"/>
       <use xlink:href="#DejaVuSans-2e" x="63.623047"/>
       <use xlink:href="#DejaVuSans-30" x="95.410156"/>
       <use xlink:href="#DejaVuSans-30" x="159.033203"/>
       <use xlink:href="#DejaVuSans-30" x="222.65625"/>
       <use xlink:href="#DejaVuSans-30" x="286.279297"/>
      </g>
     </g>
    </g>
    <g id="ytick_2">
     <g id="line2d_24">
      <g>
       <use xlink:href="#mc326b90af5" x="66.98" y="270.487325" style="stroke: #000000; stroke-width: 0.8"/>
      </g>
     </g>
     <g id="text_25">
      <!-- 0.0005 -->
      <g transform="translate(24.989375 274.286544) scale(0.1 -0.1)">
       <use xlink:href="#DejaVuSans-30"/>
       <use xlink:href="#DejaVuSans-2e" x="63.623047"/>
       <use xlink:href="#DejaVuSans-30" x="95.410156"/>
       <use xlink:href="#DejaVuSans-30" x="159.033203"/>
       <use xlink:href="#DejaVuSans-30" x="222.65625"/>
       <use xlink:href="#DejaVuSans-35" x="286.279297"/>
      </g>
     </g>
    </g>
    <g id="ytick_3">
     <g id="line2d_25">
      <g>
       <use xlink:href="#mc326b90af5" x="66.98" y="222.93465" style="stroke: #000000; stroke-width: 0.8"/>
      </g>
     </g>
     <g id="text_26">
      <!-- 0.0010 -->
      <g transform="translate(24.989375 226.733868) scale(0.1 -0.1)">
       <use xlink:href="#DejaVuSans-30"/>
       <use xlink:href="#DejaVuSans-2e" x="63.623047"/>
       <use xlink:href="#DejaVuSans-30" x="95.410156"/>
       <use xlink:href="#DejaVuSans-30" x="159.033203"/>
       <use xlink:href="#DejaVuSans-31" x="222.65625"/>
       <use xlink:href="#DejaVuSans-30" x="286.279297"/>
      </g>
     </g>
    </g>
    <g id="ytick_4">
     <g id="line2d_26">
      <g>
       <use xlink:href="#mc326b90af5" x="66.98" y="175.381974" style="stroke: #000000; stroke-width: 0.8"/>
      </g>
     </g>
     <g id="text_27">
      <!-- 0.0015 -->
      <g transform="translate(24.989375 179.181193) scale(0.1 -0.1)">
       <use xlink:href="#DejaVuSans-30"/>
       <use xlink:href="#DejaVuSans-2e" x="63.623047"/>
       <use xlink:href="#DejaVuSans-30" x="95.410156"/>
       <use xlink:href="#DejaVuSans-30" x="159.033203"/>
       <use xlink:href="#DejaVuSans-31" x="222.65625"/>
       <use xlink:href="#DejaVuSans-35" x="286.279297"/>
      </g>
     </g>
    </g>
    <g id="ytick_5">
     <g id="line2d_27">
      <g>
       <use xlink:href="#mc326b90af5" x="66.98" y="127.829299" style="stroke: #000000; stroke-width: 0.8"/>
      </g>
     </g>
     <g id="text_28">
      <!-- 0.0020 -->
      <g transform="translate(24.989375 131.628518) scale(0.1 -0.1)">
       <use xlink:href="#DejaVuSans-30"/>
       <use xlink:href="#DejaVuSans-2e" x="63.623047"/>
       <use xlink:href="#DejaVuSans-30" x="95.410156"/>
       <use xlink:href="#DejaVuSans-30" x="159.033203"/>
       <use xlink:href="#DejaVuSans-32" x="222.65625"/>
       <use xlink:href="#DejaVuSans-30" x="286.279297"/>
      </g>
     </g>
    </g>
    <g id="ytick_6">
     <g id="line2d_28">
      <g>
       <use xlink:href="#mc326b90af5" x="66.98" y="80.276624" style="stroke: #000000; stroke-width: 0.8"/>
      </g>
     </g>
     <g id="text_29">
      <!-- 0.0025 -->
      <g transform="translate(24.989375 84.075843) scale(0.1 -0.1)">
       <use xlink:href="#DejaVuSans-30"/>
       <use xlink:href="#DejaVuSans-2e" x="63.623047"/>
       <use xlink:href="#DejaVuSans-30" x="95.410156"/>
       <use xlink:href="#DejaVuSans-30" x="159.033203"/>
       <use xlink:href="#DejaVuSans-32" x="222.65625"/>
       <use xlink:href="#DejaVuSans-35" x="286.279297"/>
      </g>
     </g>
    </g>
    <g id="ytick_7">
     <g id="line2d_29">
      <g>
       <use xlink:href="#mc326b90af5" x="66.98" y="32.723949" style="stroke: #000000; stroke-width: 0.8"/>
      </g>
     </g>
     <g id="text_30">
      <!-- 0.0030 -->
      <g transform="translate(24.989375 36.523167) scale(0.1 -0.1)">
       <use xlink:href="#DejaVuSans-30"/>
       <use xlink:href="#DejaVuSans-2e" x="63.623047"/>
       <use xlink:href="#DejaVuSans-30" x="95.410156"/>
       <use xlink:href="#DejaVuSans-30" x="159.033203"/>
       <use xlink:href="#DejaVuSans-33" x="222.65625"/>
       <use xlink:href="#DejaVuSans-30" x="286.279297"/>
      </g>
     </g>
    </g>
    <g id="text_31">
     <!-- Mean Squared Violation -->
     <g transform="translate(18.909687 231.103281) rotate(-90) scale(0.1 -0.1)">
      <defs>
       <path id="DejaVuSans-4d" d="M 628 4666 
L 1569 4666 
L 2759 1491 
L 3956 4666 
L 4897 4666 
L 4897 0 
L 4281 0 
L 4281 4097 
L 3078 897 
L 2444 897 
L 1241 4097 
L 1241 0 
L 628 0 
L 628 4666 
z
" transform="scale(0.015625)"/>
       <path id="DejaVuSans-53" d="M 3425 4513 
L 3425 3897 
Q 3066 4069 2747 4153 
Q 2428 4238 2131 4238 
Q 1616 4238 1336 4038 
Q 1056 3838 1056 3469 
Q 1056 3159 1242 3001 
Q 1428 2844 1947 2747 
L 2328 2669 
Q 3034 2534 3370 2195 
Q 3706 1856 3706 1288 
Q 3706 609 3251 259 
Q 2797 -91 1919 -91 
Q 1588 -91 1214 -16 
Q 841 59 441 206 
L 441 856 
Q 825 641 1194 531 
Q 1563 422 1919 422 
Q 2459 422 2753 634 
Q 3047 847 3047 1241 
Q 3047 1584 2836 1778 
Q 2625 1972 2144 2069 
L 1759 2144 
Q 1053 2284 737 2584 
Q 422 2884 422 3419 
Q 422 4038 858 4394 
Q 1294 4750 2059 4750 
Q 2388 4750 2728 4690 
Q 3069 4631 3425 4513 
z
" transform="scale(0.015625)"/>
       <path id="DejaVuSans-56" d="M 1831 0 
L 50 4666 
L 709 4666 
L 2188 738 
L 3669 4666 
L 4325 4666 
L 2547 0 
L 1831 0 
z
" transform="scale(0.015625)"/>
       <path id="DejaVuSans-6c" d="M 603 4863 
L 1178 4863 
L 1178 0 
L 603 0 
L 603 4863 
z
" transform="scale(0.015625)"/>
      </defs>
      <use xlink:href="#DejaVuSans-4d"/>
      <use xlink:href="#DejaVuSans-65" x="86.279297"/>
      <use xlink:href="#DejaVuSans-61" x="147.802734"/>
      <use xlink:href="#DejaVuSans-6e" x="209.082031"/>
      <use xlink:href="#DejaVuSans-20" x="272.460938"/>
      <use xlink:href="#DejaVuSans-53" x="304.248047"/>
      <use xlink:href="#DejaVuSans-71" x="367.724609"/>
      <use xlink:href="#DejaVuSans-75" x="431.201172"/>
      <use xlink:href="#DejaVuSans-61" x="494.580078"/>
      <use xlink:href="#DejaVuSans-72" x="555.859375"/>
      <use xlink:href="#DejaVuSans-65" x="594.722656"/>
      <use xlink:href="#DejaVuSans-64" x="656.246094"/>
      <use xlink:href="#DejaVuSans-20" x="719.722656"/>
      <use xlink:href="#DejaVuSans-56" x="751.509766"/>
      <use xlink:href="#DejaVuSans-69" x="817.667969"/>
      <use xlink:href="#DejaVuSans-6f" x="845.451172"/>
      <use xlink:href="#DejaVuSans-6c" x="906.632812"/>
      <use xlink:href="#DejaVuSans-61" x="934.416016"/>
      <use xlink:href="#DejaVuSans-74" x="995.695312"/>
      <use xlink:href="#DejaVuSans-69" x="1034.904297"/>
      <use xlink:href="#DejaVuSans-6f" x="1062.6875"/>
      <use xlink:href="#DejaVuSans-6e" x="1123.869141"/>
     </g>
    </g>
   </g>
   <g id="patch_47">
    <path d="M 66.98 318.04 
L 66.98 25.44 
" style="fill: none; stroke: #000000; stroke-width: 0.8; stroke-linejoin: miter; stroke-linecap: square"/>
   </g>
   <g id="patch_48">
    <path d="M 584.84 318.04 
L 584.84 25.44 
" style="fill: none; stroke: #000000; stroke-width: 0.8; stroke-linejoin: miter; stroke-linecap: square"/>
   </g>
   <g id="patch_49">
    <path d="M 66.98 318.04 
L 584.84 318.04 
" style="fill: none; stroke: #000000; stroke-width: 0.8; stroke-linejoin: miter; stroke-linecap: square"/>
   </g>
   <g id="patch_50">
    <path d="M 66.98 25.44 
L 584.84 25.44 
" style="fill: none; stroke: #000000; stroke-width: 0.8; stroke-linejoin: miter; stroke-linecap: square"/>
   </g>
   <g id="text_32">
    <!-- Per-Equation Violation: Healthy vs Broken -->
    <g transform="translate(211.778125 19.44) scale(0.11 -0.11)">
     <defs>
      <path id="DejaVuSans-50" d="M 1259 4147 
L 1259 2394 
L 2053 2394 
Q 2494 2394 2734 2622 
Q 2975 2850 2975 3272 
Q 2975 3691 2734 3919 
Q 2494 4147 2053 4147 
L 1259 4147 
z
M 628 4666 
L 2053 4666 
Q 2838 4666 3239 4311 
Q 3641 3956 3641 3272 
Q 3641 2581 3239 2228 
Q 2838 1875 2053 1875 
L 1259 1875 
L 1259 0 
L 628 0 
L 628 4666 
z
" transform="scale(0.015625)"/>
      <path id="DejaVuSans-2d" d="M 313 2009 
L 1997 2009 
L 1997 1497 
L 313 1497 
L 313 2009 
z
" transform="scale(0.015625)"/>
      <path id="DejaVuSans-3a" d="M 750 794 
L 1409 794 
L 1409 0 
L 750 0 
L 750 794 
z
M 750 3309 
L 1409 3309 
L 1409 2516 
L 750 2516 
L 750 3309 
z
" transform="scale(0.015625)"/>
      <path id="DejaVuSans-48" d="M 628 4666 
L 1259 4666 
L 1259 2753 
L 3553 2753 
L 3553 4666 
L 4184 4666 
L 4184 0 
L 3553 0 
L 3553 2222 
L 1259 2222 
L 1259 0 
L 628 0 
L 628 4666 
z
" transform="scale(0.015625)"/>
      <path id="DejaVuSans-68" d="M 3513 2113 
L 3513 0 
L 2938 0 
L 2938 2094 
Q 2938 2591 2744 2837 
Q 2550 3084 2163 3084 
Q 1697 3084 1428 2787 
Q 1159 2491 1159 1978 
L 1159 0 
L 581 0 
L 581 4863 
L 1159 4863 
L 1159 2956 
Q 1366 3272 1645 3428 
Q 1925 3584 2291 3584 
Q 2894 3584 3203 3211 
Q 3513 2838 3513 2113 
z
" transform="scale(0.015625)"/>
      <path id="DejaVuSans-79" d="M 2059 -325 
Q 1816 -950 1584 -1140 
Q 1353 -1331 966 -1331 
L 506 -1331 
L 506 -850 
L 844 -850 
Q 1081 -850 1212 -737 
Q 1344 -625 1503 -206 
L 1606 56 
L 191 3500 
L 800 3500 
L 1894 763 
L 2988 3500 
L 3597 3500 
L 2059 -325 
z
" transform="scale(0.015625)"/>
      <path id="DejaVuSans-76" d="M 191 3500 
L 800 3500 
L 1894 563 
L 2988 3500 
L 3597 3500 
L 2284 0 
L 1503 0 
L 191 3500 
z
" transform="scale(0.015625)"/>
      <path id="DejaVuSans-73" d="M 2834 3397 
L 2834 2853 
Q 2591 2978 2328 3040 
Q 2066 3103 1784 3103 
Q 1356 3103 1142 2972 
Q 928 2841 928 2578 
Q 928 2378 1081 2264 
Q 1234 2150 1697 2047 
L 1894 2003 
Q 2506 1872 2764 1633 
Q 3022 1394 3022 966 
Q 3022 478 2636 193 
Q 2250 -91 1575 -91 
Q 1294 -91 989 -36 
Q 684 19 347 128 
L 347 722 
Q 666 556 975 473 
Q 1284 391 1588 391 
Q 1994 391 2212 530 
Q 2431 669 2431 922 
Q 2431 1156 2273 1281 
Q 2116 1406 1581 1522 
L 1381 1569 
Q 847 1681 609 1914 
Q 372 2147 372 2553 
Q 372 3047 722 3315 
Q 1072 3584 1716 3584 
Q 2034 3584 2315 3537 
Q 2597 3491 2834 3397 
z
" transform="scale(0.015625)"/>
      <path id="DejaVuSans-42" d="M 1259 2228 
L 1259 519 
L 2272 519 
Q 2781 519 3026 730 
Q 3272 941 3272 1375 
Q 3272 1813 3026 2020 
Q 2781 2228 2272 2228 
L 1259 2228 
z
M 1259 4147 
L 1259 2741 
L 2194 2741 
Q 2656 2741 2882 2914 
Q 3109 3088 3109 3444 
Q 3109 3797 2882 3972 
Q 2656 4147 2194 4147 
L 1259 4147 
z
M 628 4666 
L 2241 4666 
Q 2963 4666 3353 4366 
Q 3744 4066 3744 3513 
Q 3744 3084 3544 2831 
Q 3344 2578 2956 2516 
Q 3422 2416 3680 2098 
Q 3938 1781 3938 1306 
Q 3938 681 3513 340 
Q 3088 0 2303 0 
L 628 0 
L 628 4666 
z
" transform="scale(0.015625)"/>
      <path id="DejaVuSans-6b" d="M 581 4863 
L 1159 4863 
L 1159 1991 
L 2875 3500 
L 3609 3500 
L 1753 1863 
L 3688 0 
L 2938 0 
L 1159 1709 
L 1159 0 
L 581 0 
L 581 4863 
z
" transform="scale(0.015625)"/>
     </defs>
     <use xlink:href="#DejaVuSans-50"/>
     <use xlink:href="#DejaVuSans-65" x="56.677734"/>
     <use xlink:href="#DejaVuSans-72" x="118.201172"/>
     <use xlink:href="#DejaVuSans-2d" x="152.939453"/>
     <use xlink:href="#DejaVuSans-45" x="189.023438"/>
     <use xlink:href="#DejaVuSans-71" x="252.207031"/>
     <use xlink:href="#DejaVuSans-75" x="315.683594"/>
     <use xlink:href="#DejaVuSans-61" x="379.0625"/>
     <use xlink:href="#DejaVuSans-74" x="440.341797"/>
     <use xlink:href="#DejaVuSans-69" x="479.550781"/>
     <use xlink:href="#DejaVuSans-6f" x="507.333984"/>
     <use xlink:href="#DejaVuSans-6e" x="568.515625"/>
     <use xlink:href="#DejaVuSans-20" x="631.894531"/>
     <use xlink:href="#DejaVuSans-56" x="663.681641"/>
     <use xlink:href="#DejaVuSans-69" x="729.839844"/>
     <use xlink:href="#DejaVuSans-6f" x="757.623047"/>
     <use xlink:href="#DejaVuSans-6c" x="818.804688"/>
     <use xlink:href="#DejaVuSans-61" x="846.587891"/>
     <use xlink:href="#DejaVuSans-74" x="907.867188"/>
     <use xlink:href="#DejaVuSans-69" x="947.076172"/>
     <use xlink:href="#DejaVuSans-6f" x="974.859375"/>
     <use xlink:href="#DejaVuSans-6e" x="1036.041016"/>
     <use xlink:href="#DejaVuSans-3a" x="1099.419922"/>
     <use xlink:href="#DejaVuSans-20" x="1133.111328"/>
     <use xlink:href="#DejaVuSans-48" x="1164.898438"/>
     <use xlink:href="#DejaVuSans-65" x="1240.09375"/>
     <use xlink:href="#DejaVuSans-61" x="1301.617188"/>
     <use xlink:href="#DejaVuSans-6c" x="1362.896484"/>
     <use xlink:href="#DejaVuSans-74" x="1390.679688"/>
     <use xlink:href="#DejaVuSans-68" x="1429.888672"/>
     <use xlink:href="#DejaVuSans-79" x="1493.267578"/>
     <use xlink:href="#DejaVuSans-20" x="1552.447266"/>
     <use xlink:href="#DejaVuSans-76" x="1584.234375"/>
     <use xlink:href="#DejaVuSans-73" x="1643.414062"/>
     <use xlink:href="#DejaVuSans-20" x="1695.513672"/>
     <use xlink:href="#DejaVuSans-42" x="1727.300781"/>
     <use xlink:href="#DejaVuSans-72" x="1795.904297"/>
     <use xlink:href="#DejaVuSans-6f" x="1834.767578"/>
     <use xlink:href="#DejaVuSans-6b" x="1895.949219"/>
     <use xlink:href="#DejaVuSans-65" x="1950.234375"/>
     <use xlink:href="#DejaVuSans-6e" x="2011.757812"/>
    </g>
   </g>
   <g id="legend_1">
    <g id="patch_51">
     <path d="M 507.08375 62.79625 
L 577.84 62.79625 
Q 579.84 62.79625 579.84 60.79625 
L 579.84 32.44 
Q 579.84 30.44 577.84 30.44 
L 507.08375 30.44 
Q 505.08375 30.44 505.08375 32.44 
L 505.08375 60.79625 
Q 505.08375 62.79625 507.08375 62.79625 
z
" style="fill: #ffffff; opacity: 0.8; stroke: #cccccc; stroke-linejoin: miter"/>
    </g>
    <g id="patch_52">
     <path d="M 509.08375 42.038437 
L 529.08375 42.038437 
L 529.08375 35.038437 
L 509.08375 35.038437 
z
" style="fill: #2ecc71; opacity: 0.8"/>
    </g>
    <g id="text_33">
     <!-- Healthy -->
     <g transform="translate(537.08375 42.038437) scale(0.1 -0.1)">
      <use xlink:href="#DejaVuSans-48"/>
      <use xlink:href="#DejaVuSans-65" x="75.195312"/>
      <use xlink:href="#DejaVuSans-61" x="136.71875"/>
      <use xlink:href="#DejaVuSans-6c" x="197.998047"/>
      <use xlink:href="#DejaVuSans-74" x="225.78125"/>
      <use xlink:href="#DejaVuSans-68" x="264.990234"/>
      <use xlink:href="#DejaVuSans-79" x="328.369141"/>
     </g>
    </g>
    <g id="patch_53">
     <path d="M 509.08375 56.716563 
L 529.08375 56.716563 
L 529.08375 49.716563 
L 509.08375 49.716563 
z
" style="fill: #e74c3c; opacity: 0.8"/>
    </g>
    <g id="text_34">
     <!-- Broken -->
     <g transform="translate(537.08375 56.716563) scale(0.1 -0.1)">
      <use xlink:href="#DejaVuSans-42"/>
      <use xlink:href="#DejaVuSans-72" x="68.603516"/>
      <use xlink:href="#DejaVuSans-6f" x="107.466797"/>
      <use xlink:href="#DejaVuSans-6b" x="168.648438"/>
      <use xlink:href="#DejaVuSans-65" x="222.933594"/>
      <use xlink:href="#DejaVuSans-6e" x="284.457031"/>
     </g>
    </g>
   </g>
  </g>
  <g id="axes_2">
   <g id="patch_54">
    <path d="M 623.34 318.04 
L 1141.2 318.04 
L 1141.2 25.44 
L 623.34 25.44 
z
" style="fill: #ffffff"/>
   </g>
   <g id="patch_55">
    <path d="M 623.34 304.74 
L 692.636097 304.74 
L 692.636097 283.025714 
L 623.34 283.025714 
z
" clip-path="url(#p3ddc93c13d)" style="fill: #e74c3c; opacity: 0.8"/>
   </g>
   <g id="patch_56">
    <path d="M 623.34 277.597143 
L 698.498419 277.597143 
L 698.498419 255.882857 
L 623.34 255.882857 
z
" clip-path="url(#p3ddc93c13d)" style="fill: #e74c3c; opacity: 0.8"/>
   </g>
   <g id="patch_57">
    <path d="M 623.34 250.454286 
L 698.897478 250.454286 
L 698.897478 228.74 
L 623.34 228.74 
z
" clip-path="url(#p3ddc93c13d)" style="fill: #e74c3c; opacity: 0.8"/>
   </g>
   <g id="patch_58">
    <path d="M 623.34 223.311429 
L 701.411458 223.311429 
L 701.411458 201.597143 
L 623.34 201.597143 
z
" clip-path="url(#p3ddc93c13d)" style="fill: #e74c3c; opacity: 0.8"/>
   </g>
   <g id="patch_59">
    <path d="M 623.34 196.168571 
L 715.884774 196.168571 
L 715.884774 174.454286 
L 623.34 174.454286 
z
" clip-path="url(#p3ddc93c13d)" style="fill: #e74c3c; opacity: 0.8"/>
   </g>
   <g id="patch_60">
    <path d="M 623.34 169.025714 
L 731.830566 169.025714 
L 731.830566 147.311429 
L 623.34 147.311429 
z
" clip-path="url(#p3ddc93c13d)" style="fill: #e74c3c; opacity: 0.8"/>
   </g>
   <g id="patch_61">
    <path d="M 623.34 141.882857 
L 737.842427 141.882857 
L 737.842427 120.168571 
L 623.34 120.168571 
z
" clip-path="url(#p3ddc93c13d)" style="fill: #e74c3c; opacity: 0.8"/>
   </g>
   <g id="patch_62">
    <path d="M 623.34 114.74 
L 741.966769 114.74 
L 741.966769 93.025714 
L 623.34 93.025714 
z
" clip-path="url(#p3ddc93c13d)" style="fill: #e74c3c; opacity: 0.8"/>
   </g>
   <g id="patch_63">
    <path d="M 623.34 87.597143 
L 802.329775 87.597143 
L 802.329775 65.882857 
L 623.34 65.882857 
z
" clip-path="url(#p3ddc93c13d)" style="fill: #e74c3c; opacity: 0.8"/>
   </g>
   <g id="patch_64">
    <path d="M 623.34 60.454286 
L 1116.54 60.454286 
L 1116.54 38.74 
L 623.34 38.74 
z
" clip-path="url(#p3ddc93c13d)" style="fill: #e74c3c; opacity: 0.8"/>
   </g>
   <g id="matplotlib.axis_3">
    <g id="xtick_23">
     <g id="line2d_30">
      <g>
       <use xlink:href="#m30d19085a9" x="623.34" y="318.04" style="stroke: #000000; stroke-width: 0.8"/>
      </g>
     </g>
     <g id="text_35">
      <!-- 0 -->
      <g transform="translate(620.15875 332.638438) scale(0.1 -0.1)">
       <use xlink:href="#DejaVuSans-30"/>
      </g>
     </g>
    </g>
    <g id="xtick_24">
     <g id="line2d_31">
      <g>
       <use xlink:href="#m30d19085a9" x="684.252251" y="318.04" style="stroke: #000000; stroke-width: 0.8"/>
      </g>
     </g>
     <g id="text_36">
      <!-- 2 -->
      <g transform="translate(681.071001 332.638438) scale(0.1 -0.1)">
       <use xlink:href="#DejaVuSans-32"/>
      </g>
     </g>
    </g>
    <g id="xtick_25">
     <g id="line2d_32">
      <g>
       <use xlink:href="#m30d19085a9" x="745.164503" y="318.04" style="stroke: #000000; stroke-width: 0.8"/>
      </g>
     </g>
     <g id="text_37">
      <!-- 4 -->
      <g transform="translate(741.983253 332.638438) scale(0.1 -0.1)">
       <use xlink:href="#DejaVuSans-34"/>
      </g>
     </g>
    </g>
    <g id="xtick_26">
     <g id="line2d_33">
      <g>
       <use xlink:href="#m30d19085a9" x="806.076754" y="318.04" style="stroke: #000000; stroke-width: 0.8"/>
      </g>
     </g>
     <g id="text_38">
      <!-- 6 -->
      <g transform="translate(802.895504 332.638438) scale(0.1 -0.1)">
       <use xlink:href="#DejaVuSans-36"/>
      </g>
     </g>
    </g>
    <g id="xtick_27">
     <g id="line2d_34">
      <g>
       <use xlink:href="#m30d19085a9" x="866.989005" y="318.04" style="stroke: #000000; stroke-width: 0.8"/>
      </g>
     </g>
     <g id="text_39">
      <!-- 8 -->
      <g transform="translate(863.807755 332.638438) scale(0.1 -0.1)">
       <use xlink:href="#DejaVuSans-38"/>
      </g>
     </g>
    </g>
    <g id="xtick_28">
     <g id="line2d_35">
      <g>
       <use xlink:href="#m30d19085a9" x="927.901256" y="318.04" style="stroke: #000000; stroke-width: 0.8"/>
      </g>
     </g>
     <g id="text_40">
      <!-- 10 -->
      <g transform="translate(921.538756 332.638438) scale(0.1 -0.1)">
       <use xlink:href="#DejaVuSans-31"/>
       <use xlink:href="#DejaVuSans-30" x="63.623047"/>
      </g>
     </g>
    </g>
    <g id="xtick_29">
     <g id="line2d_36">
      <g>
       <use xlink:href="#m30d19085a9" x="988.813508" y="318.04" style="stroke: #000000; stroke-width: 0.8"/>
      </g>
     </g>
     <g id="text_41">
      <!-- 12 -->
      <g transform="translate(982.451008 332.638438) scale(0.1 -0.1)">
       <use xlink:href="#DejaVuSans-31"/>
       <use xlink:href="#DejaVuSans-32" x="63.623047"/>
      </g>
     </g>
    </g>
    <g id="xtick_30">
     <g id="line2d_37">
      <g>
       <use xlink:href="#m30d19085a9" x="1049.725759" y="318.04" style="stroke: #000000; stroke-width: 0.8"/>
      </g>
     </g>
     <g id="text_42">
      <!-- 14 -->
      <g transform="translate(1043.363259 332.638438) scale(0.1 -0.1)">
       <use xlink:href="#DejaVuSans-31"/>
       <use xlink:href="#DejaVuSans-34" x="63.623047"/>
      </g>
     </g>
    </g>
    <g id="xtick_31">
     <g id="line2d_38">
      <g>
       <use xlink:href="#m30d19085a9" x="1110.63801" y="318.04" style="stroke: #000000; stroke-width: 0.8"/>
      </g>
     </g>
     <g id="text_43">
      <!-- 16 -->
      <g transform="translate(1104.27551 332.638438) scale(0.1 -0.1)">
       <use xlink:href="#DejaVuSans-31"/>
       <use xlink:href="#DejaVuSans-36" x="63.623047"/>
      </g>
     </g>
    </g>
    <g id="text_44">
     <!-- Fault Ratio (broken / healthy) -->
     <g transform="translate(809.569219 346.316563) scale(0.1 -0.1)">
      <defs>
       <path id="DejaVuSans-46" d="M 628 4666 
L 3309 4666 
L 3309 4134 
L 1259 4134 
L 1259 2759 
L 3109 2759 
L 3109 2228 
L 1259 2228 
L 1259 0 
L 628 0 
L 628 4666 
z
" transform="scale(0.015625)"/>
       <path id="DejaVuSans-52" d="M 2841 2188 
Q 3044 2119 3236 1894 
Q 3428 1669 3622 1275 
L 4263 0 
L 3584 0 
L 2988 1197 
Q 2756 1666 2539 1819 
Q 2322 1972 1947 1972 
L 1259 1972 
L 1259 0 
L 628 0 
L 628 4666 
L 2053 4666 
Q 2853 4666 3247 4331 
Q 3641 3997 3641 3322 
Q 3641 2881 3436 2590 
Q 3231 2300 2841 2188 
z
M 1259 4147 
L 1259 2491 
L 2053 2491 
Q 2509 2491 2742 2702 
Q 2975 2913 2975 3322 
Q 2975 3731 2742 3939 
Q 2509 4147 2053 4147 
L 1259 4147 
z
" transform="scale(0.015625)"/>
       <path id="DejaVuSans-62" d="M 3116 1747 
Q 3116 2381 2855 2742 
Q 2594 3103 2138 3103 
Q 1681 3103 1420 2742 
Q 1159 2381 1159 1747 
Q 1159 1113 1420 752 
Q 1681 391 2138 391 
Q 2594 391 2855 752 
Q 3116 1113 3116 1747 
z
M 1159 2969 
Q 1341 3281 1617 3432 
Q 1894 3584 2278 3584 
Q 2916 3584 3314 3078 
Q 3713 2572 3713 1747 
Q 3713 922 3314 415 
Q 2916 -91 2278 -91 
Q 1894 -91 1617 61 
Q 1341 213 1159 525 
L 1159 0 
L 581 0 
L 581 4863 
L 1159 4863 
L 1159 2969 
z
" transform="scale(0.015625)"/>
       <path id="DejaVuSans-2f" d="M 1625 4666 
L 2156 4666 
L 531 -594 
L 0 -594 
L 1625 4666 
z
" transform="scale(0.015625)"/>
      </defs>
      <use xlink:href="#DejaVuSans-46"/>
      <use xlink:href="#DejaVuSans-61" x="48.394531"/>
      <use xlink:href="#DejaVuSans-75" x="109.673828"/>
      <use xlink:href="#DejaVuSans-6c" x="173.052734"/>
      <use xlink:href="#DejaVuSans-74" x="200.835938"/>
      <use xlink:href="#DejaVuSans-20" x="240.044922"/>
      <use xlink:href="#DejaVuSans-52" x="271.832031"/>
      <use xlink:href="#DejaVuSans-61" x="339.064453"/>
      <use xlink:href="#DejaVuSans-74" x="400.34375"/>
      <use xlink:href="#DejaVuSans-69" x="439.552734"/>
      <use xlink:href="#DejaVuSans-6f" x="467.335938"/>
      <use xlink:href="#DejaVuSans-20" x="528.517578"/>
      <use xlink:href="#DejaVuSans-28" x="560.304688"/>
      <use xlink:href="#DejaVuSans-62" x="599.318359"/>
      <use xlink:href="#DejaVuSans-72" x="662.794922"/>
      <use xlink:href="#DejaVuSans-6f" x="701.658203"/>
      <use xlink:href="#DejaVuSans-6b" x="762.839844"/>
      <use xlink:href="#DejaVuSans-65" x="817.125"/>
      <use xlink:href="#DejaVuSans-6e" x="878.648438"/>
      <use xlink:href="#DejaVuSans-20" x="942.027344"/>
      <use xlink:href="#DejaVuSans-2f" x="973.814453"/>
      <use xlink:href="#DejaVuSans-20" x="1007.505859"/>
      <use xlink:href="#DejaVuSans-68" x="1039.292969"/>
      <use xlink:href="#DejaVuSans-65" x="1102.671875"/>
      <use xlink:href="#DejaVuSans-61" x="1164.195312"/>
      <use xlink:href="#DejaVuSans-6c" x="1225.474609"/>
      <use xlink:href="#DejaVuSans-74" x="1253.257812"/>
      <use xlink:href="#DejaVuSans-68" x="1292.466797"/>
      <use xlink:href="#DejaVuSans-79" x="1355.845703"/>
      <use xlink:href="#DejaVuSans-29" x="1415.025391"/>
     </g>
    </g>
   </g>
   <g id="matplotlib.axis_4">
    <g id="ytick_8">
     <g id="line2d_39">
      <g>
       <use xlink:href="#mc326b90af5" x="623.34" y="293.882857" style="stroke: #000000; stroke-width: 0.8"/>
      </g>
     </g>
     <g id="text_45">
      <!-- z_02 -->
      <g transform="translate(595.663906 297.222701) scale(0.09 -0.09)">
       <defs>
        <path id="DejaVuSans-7a" d="M 353 3500 
L 3084 3500 
L 3084 2975 
L 922 459 
L 3084 459 
L 3084 0 
L 275 0 
L 275 525 
L 2438 3041 
L 353 3041 
L 353 3500 
z
" transform="scale(0.015625)"/>
        <path id="DejaVuSans-5f" d="M 3263 -1063 
L 3263 -1509 
L -63 -1509 
L -63 -1063 
L 3263 -1063 
z
" transform="scale(0.015625)"/>
       </defs>
       <use xlink:href="#DejaVuSans-7a"/>
       <use xlink:href="#DejaVuSans-5f" x="52.490234"/>
       <use xlink:href="#DejaVuSans-30" x="102.490234"/>
       <use xlink:href="#DejaVuSans-32" x="166.113281"/>
      </g>
     </g>
    </g>
    <g id="ytick_9">
     <g id="line2d_40">
      <g>
       <use xlink:href="#mc326b90af5" x="623.34" y="266.74" style="stroke: #000000; stroke-width: 0.8"/>
      </g>
     </g>
     <g id="text_46">
      <!-- z_04 -->
      <g transform="translate(595.663906 270.079844) scale(0.09 -0.09)">
       <use xlink:href="#DejaVuSans-7a"/>
       <use xlink:href="#DejaVuSans-5f" x="52.490234"/>
       <use xlink:href="#DejaVuSans-30" x="102.490234"/>
       <use xlink:href="#DejaVuSans-34" x="166.113281"/>
      </g>
     </g>
    </g>
    <g id="ytick_10">
     <g id="line2d_41">
      <g>
       <use xlink:href="#mc326b90af5" x="623.34" y="239.597143" style="stroke: #000000; stroke-width: 0.8"/>
      </g>
     </g>
     <g id="text_47">
      <!-- z_17 -->
      <g transform="translate(595.663906 242.891283) scale(0.09 -0.09)">
       <use xlink:href="#DejaVuSans-7a"/>
       <use xlink:href="#DejaVuSans-5f" x="52.490234"/>
       <use xlink:href="#DejaVuSans-31" x="102.490234"/>
       <use xlink:href="#DejaVuSans-37" x="166.113281"/>
      </g>
     </g>
    </g>
    <g id="ytick_11">
     <g id="line2d_42">
      <g>
       <use xlink:href="#mc326b90af5" x="623.34" y="212.454286" style="stroke: #000000; stroke-width: 0.8"/>
      </g>
     </g>
     <g id="text_48">
      <!-- z_13 -->
      <g transform="translate(595.663906 215.794129) scale(0.09 -0.09)">
       <use xlink:href="#DejaVuSans-7a"/>
       <use xlink:href="#DejaVuSans-5f" x="52.490234"/>
       <use xlink:href="#DejaVuSans-31" x="102.490234"/>
       <use xlink:href="#DejaVuSans-33" x="166.113281"/>
      </g>
     </g>
    </g>
    <g id="ytick_12">
     <g id="line2d_43">
      <g>
       <use xlink:href="#mc326b90af5" x="623.34" y="185.311429" style="stroke: #000000; stroke-width: 0.8"/>
      </g>
     </g>
     <g id="text_49">
      <!-- z_16 -->
      <g transform="translate(595.663906 188.651272) scale(0.09 -0.09)">
       <use xlink:href="#DejaVuSans-7a"/>
       <use xlink:href="#DejaVuSans-5f" x="52.490234"/>
       <use xlink:href="#DejaVuSans-31" x="102.490234"/>
       <use xlink:href="#DejaVuSans-36" x="166.113281"/>
      </g>
     </g>
    </g>
    <g id="ytick_13">
     <g id="line2d_44">
      <g>
       <use xlink:href="#mc326b90af5" x="623.34" y="158.168571" style="stroke: #000000; stroke-width: 0.8"/>
      </g>
     </g>
     <g id="text_50">
      <!-- z_15 -->
      <g transform="translate(595.663906 161.462712) scale(0.09 -0.09)">
       <use xlink:href="#DejaVuSans-7a"/>
       <use xlink:href="#DejaVuSans-5f" x="52.490234"/>
       <use xlink:href="#DejaVuSans-31" x="102.490234"/>
       <use xlink:href="#DejaVuSans-35" x="166.113281"/>
      </g>
     </g>
    </g>
    <g id="ytick_14">
     <g id="line2d_45">
      <g>
       <use xlink:href="#mc326b90af5" x="623.34" y="131.025714" style="stroke: #000000; stroke-width: 0.8"/>
      </g>
     </g>
     <g id="text_51">
      <!-- z_09 -->
      <g transform="translate(595.663906 134.365558) scale(0.09 -0.09)">
       <use xlink:href="#DejaVuSans-7a"/>
       <use xlink:href="#DejaVuSans-5f" x="52.490234"/>
       <use xlink:href="#DejaVuSans-30" x="102.490234"/>
       <use xlink:href="#DejaVuSans-39" x="166.113281"/>
      </g>
     </g>
    </g>
    <g id="ytick_15">
     <g id="line2d_46">
      <g>
       <use xlink:href="#mc326b90af5" x="623.34" y="103.882857" style="stroke: #000000; stroke-width: 0.8"/>
      </g>
     </g>
     <g id="text_52">
      <!-- z_21 -->
      <g transform="translate(595.663906 107.222701) scale(0.09 -0.09)">
       <use xlink:href="#DejaVuSans-7a"/>
       <use xlink:href="#DejaVuSans-5f" x="52.490234"/>
       <use xlink:href="#DejaVuSans-32" x="102.490234"/>
       <use xlink:href="#DejaVuSans-31" x="166.113281"/>
      </g>
     </g>
    </g>
    <g id="ytick_16">
     <g id="line2d_47">
      <g>
       <use xlink:href="#mc326b90af5" x="623.34" y="76.74" style="stroke: #000000; stroke-width: 0.8"/>
      </g>
     </g>
     <g id="text_53">
      <!-- z_19 -->
      <g transform="translate(595.663906 80.079844) scale(0.09 -0.09)">
       <use xlink:href="#DejaVuSans-7a"/>
       <use xlink:href="#DejaVuSans-5f" x="52.490234"/>
       <use xlink:href="#DejaVuSans-31" x="102.490234"/>
       <use xlink:href="#DejaVuSans-39" x="166.113281"/>
      </g>
     </g>
    </g>
    <g id="ytick_17">
     <g id="line2d_48">
      <g>
       <use xlink:href="#mc326b90af5" x="623.34" y="49.597143" style="stroke: #000000; stroke-width: 0.8"/>
      </g>
     </g>
     <g id="text_54">
      <!-- z_06 -->
      <g transform="translate(595.663906 52.936987) scale(0.09 -0.09)">
       <use xlink:href="#DejaVuSans-7a"/>
       <use xlink:href="#DejaVuSans-5f" x="52.490234"/>
       <use xlink:href="#DejaVuSans-30" x="102.490234"/>
       <use xlink:href="#DejaVuSans-36" x="166.113281"/>
      </g>
     </g>
    </g>
   </g>
   <g id="line2d_49">
    <path d="M 653.796126 318.04 
L 653.796126 25.44 
" clip-path="url(#p3ddc93c13d)" style="fill: none; stroke-dasharray: 3.7,1.6; stroke-dashoffset: 0; stroke: #000000"/>
   </g>
   <g id="patch_65">
    <path d="M 623.34 318.04 
L 623.34 25.44 
" style="fill: none; stroke: #000000; stroke-width: 0.8; stroke-linejoin: miter; stroke-linecap: square"/>
   </g>
   <g id="patch_66">
    <path d="M 1141.2 318.04 
L 1141.2 25.44 
" style="fill: none; stroke: #000000; stroke-width: 0.8; stroke-linejoin: miter; stroke-linecap: square"/>
   </g>
   <g id="patch_67">
    <path d="M 623.34 318.04 
L 1141.2 318.04 
" style="fill: none; stroke: #000000; stroke-width: 0.8; stroke-linejoin: miter; stroke-linecap: square"/>
   </g>
   <g id="patch_68">
    <path d="M 623.34 25.44 
L 1141.2 25.44 
" style="fill: none; stroke: #000000; stroke-width: 0.8; stroke-linejoin: miter; stroke-linecap: square"/>
   </g>
   <g id="text_55">
    <!-- Top-10 Most Violated Equations -->
    <g transform="translate(795.944062 19.44) scale(0.11 -0.11)">
     <defs>
      <path id="DejaVuSans-54" d="M -19 4666 
L 3928 4666 
L 3928 4134 
L 2272 4134 
L 2272 0 
L 1638 0 
L 1638 4134 
L -19 4134 
L -19 4666 
z
" transform="scale(0.015625)"/>
      <path id="DejaVuSans-70" d="M 1159 525 
L 1159 -1331 
L 581 -1331 
L 581 3500 
L 1159 3500 
L 1159 2969 
Q 1341 3281 1617 3432 
Q 1894 3584 2278 3584 
Q 2916 3584 3314 3078 
Q 3713 2572 3713 1747 
Q 3713 922 3314 415 
Q 2916 -91 2278 -91 
Q 1894 -91 1617 61 
Q 1341 213 1159 525 
z
M 3116 1747 
Q 3116 2381 2855 2742 
Q 2594 3103 2138 3103 
Q 1681 3103 1420 2742 
Q 1159 2381 1159 1747 
Q 1159 1113 1420 752 
Q 1681 391 2138 391 
Q 2594 391 2855 752 
Q 3116 1113 3116 1747 
z
" transform="scale(0.015625)"/>
     </defs>
     <use xlink:href="#DejaVuSans-54"/>
     <use xlink:href="#DejaVuSans-6f" x="44.083984"/>
     <use xlink:href="#DejaVuSans-70" x="105.265625"/>
     <use xlink:href="#DejaVuSans-2d" x="168.742188"/>
     <use xlink:href="#DejaVuSans-31" x="204.826172"/>
     <use xlink:href="#DejaVuSans-30" x="268.449219"/>
     <use xlink:href="#DejaVuSans-20" x="332.072266"/>
     <use xlink:href="#DejaVuSans-4d" x="363.859375"/>
     <use xlink:href="#DejaVuSans-6f" x="450.138672"/>
     <use xlink:href="#DejaVuSans-73" x="511.320312"/>
     <use xlink:href="#DejaVuSans-74" x="563.419922"/>
     <use xlink:href="#DejaVuSans-20" x="602.628906"/>
     <use xlink:href="#DejaVuSans-56" x="634.416016"/>
     <use xlink:href="#DejaVuSans-69" x="700.574219"/>
     <use xlink:href="#DejaVuSans-6f" x="728.357422"/>
     <use xlink:href="#DejaVuSans-6c" x="789.539062"/>
     <use xlink:href="#DejaVuSans-61" x="817.322266"/>
     <use xlink:href="#DejaVuSans-74" x="878.601562"/>
     <use xlink:href="#DejaVuSans-65" x="917.810547"/>
     <use xlink:href="#DejaVuSans-64" x="979.333984"/>
     <use xlink:href="#DejaVuSans-20" x="1042.810547"/>
     <use xlink:href="#DejaVuSans-45" x="1074.597656"/>
     <use xlink:href="#DejaVuSans-71" x="1137.78125"/>
     <use xlink:href="#DejaVuSans-75" x="1201.257812"/>
     <use xlink:href="#DejaVuSans-61" x="1264.636719"/>
     <use xlink:href="#DejaVuSans-74" x="1325.916016"/>
     <use xlink:href="#DejaVuSans-69" x="1365.125"/>
     <use xlink:href="#DejaVuSans-6f" x="1392.908203"/>
     <use xlink:href="#DejaVuSans-6e" x="1454.089844"/>
     <use xlink:href="#DejaVuSans-73" x="1517.46875"/>
    </g>
   </g>
  </g>
 </g>
 <defs>
  <clipPath id="p8f0275ba2e">
   <rect x="66.98" y="25.44" width="517.86" height="292.6"/>
  </clipPath>
  <clipPath id="p3ddc93c13d">
   <rect x="623.34" y="25.44" width="517.86" height="292.6"/>
  </clipPath>
 </defs>
</svg>
