<?xml version="1.0" encoding="utf-8" standalone="no"?>
<!DOCTYPE svg PUBLIC "-//W3C//DTD SVG 1.1//EN"
  "http://www.w3.org/Graphics/SVG/1.1/DTD/svg11.dtd">
<svg xmlns:xlink="http://www.w3.org/1999/xlink" width="568.88625pt" height="423.676406pt" viewBox="0 0 568.88625 423.676406" xmlns="http://www.w3.org/2000/svg" version="1.1">
 <metadata>
  <rdf:RDF xmlns:dc="http://purl.org/dc/elements/1.1/" xmlns:cc="http://creativecommons.org/ns#" xmlns:rdf="http://www.w3.org/1999/02/22-rdf-syntax-ns#">
   <cc:Work>
    <dc:type rdf:resource="http://purl.org/dc/dcmitype/StillImage"/>
    <dc:date>2026-04-08T15:03:23.189814</dc:date>
    <dc:format>image/svg+xml</dc:format>
    <dc:creator>
     <cc:Agent>
      <dc:title>Matplotlib v3.8.4, https://matplotlib.org/</dc:title>
     </cc:Agent>
    </dc:creator>
   </cc:Work>
  </rdf:RDF>
 </metadata>
 <defs>
  <style type="text/css">*{stroke-linejoin: round; stroke-linecap: butt}</style>
 </defs>
 <g id="figure_1">
  <g id="patch_1">
   <path d="M 0 423.676406 
L 568.88625 423.676406 
L 568.88625 0 
L 0 0 
z
" style="fill: #ffffff"/>
  </g>
  <g id="axes_1">
   <g id="patch_2">
    <path d="M 71.25625 385.798281 
L 561.68625 385.798281 
L 561.68625 21.558281 
L 71.25625 21.558281 
z
" style="fill: #ffffff"/>
   </g>
   <g id="patch_3">
    <path d="M 71.25625 369.241918 
L 85.447483 369.241918 
L 85.447483 355.863038 
L 71.25625 355.863038 
z
" clip-path="url(#p9fb84689ea)" style="fill: #2980b9; opacity: 0.85"/>
   </g>
   <g id="patch_4">
    <path d="M 71.25625 352.518318 
L 85.610789 352.518318 
L 85.610789 339.139438 
L 71.25625 339.139438 
z
" clip-path="url(#p9fb84689ea)" style="fill: #2980b9; opacity: 0.85"/>
   </g>
   <g id="patch_5">
    <path d="M 71.25625 335.794718 
L 94.075784 335.794718 
L 94.075784 322.415839 
L 71.25625 322.415839 
z
" clip-path="url(#p9fb84689ea)" style="fill: #2980b9; opacity: 0.85"/>
   </g>
   <g id="patch_6">
    <path d="M 71.25625 319.071119 
L 96.06569 319.071119 
L 96.06569 305.692239 
L 71.25625 305.692239 
z
" clip-path="url(#p9fb84689ea)" style="fill: #2980b9; opacity: 0.85"/>
   </g>
   <g id="patch_7">
    <path d="M 71.25625 302.347519 
L 111.705633 302.347519 
L 111.705633 288.968639 
L 71.25625 288.968639 
z
" clip-path="url(#p9fb84689ea)" style="fill: #2980b9; opacity: 0.85"/>
   </g>
   <g id="patch_8">
    <path d="M 71.25625 285.623919 
L 118.171905 285.623919 
L 118.171905 272.24504 
L 71.25625 272.24504 
z
" clip-path="url(#p9fb84689ea)" style="fill: #2980b9; opacity: 0.85"/>
   </g>
   <g id="patch_9">
    <path d="M 71.25625 268.90032 
L 123.227556 268.90032 
L 123.227556 255.52144 
L 71.25625 255.52144 
z
" clip-path="url(#p9fb84689ea)" style="fill: #2980b9; opacity: 0.85"/>
   </g>
   <g id="patch_10">
    <path d="M 71.25625 252.17672 
L 123.315027 252.17672 
L 123.315027 238.79784 
L 71.25625 238.79784 
z
" clip-path="url(#p9fb84689ea)" style="fill: #2980b9; opacity: 0.85"/>
   </g>
   <g id="patch_11">
    <path d="M 71.25625 235.453121 
L 124.374665 235.453121 
L 124.374665 222.074241 
L 71.25625 222.074241 
z
" clip-path="url(#p9fb84689ea)" style="fill: #2980b9; opacity: 0.85"/>
   </g>
   <g id="patch_12">
    <path d="M 71.25625 218.729521 
L 128.488505 218.729521 
L 128.488505 205.350641 
L 71.25625 205.350641 
z
" clip-path="url(#p9fb84689ea)" style="fill: #2980b9; opacity: 0.85"/>
   </g>
   <g id="patch_13">
    <path d="M 71.25625 202.005921 
L 128.671268 202.005921 
L 128.671268 188.627042 
L 71.25625 188.627042 
z
" clip-path="url(#p9fb84689ea)" style="fill: #2980b9; opacity: 0.85"/>
   </g>
   <g id="patch_14">
    <path d="M 71.25625 185.282322 
L 129.550729 185.282322 
L 129.550729 171.903442 
L 71.25625 171.903442 
z
" clip-path="url(#p9fb84689ea)" style="fill: #2980b9; opacity: 0.85"/>
   </g>
   <g id="patch_15">
    <path d="M 71.25625 168.558722 
L 134.6298 168.558722 
L 134.6298 155.179842 
L 71.25625 155.179842 
z
" clip-path="url(#p9fb84689ea)" style="fill: #2980b9; opacity: 0.85"/>
   </g>
   <g id="patch_16">
    <path d="M 71.25625 151.835122 
L 134.951304 151.835122 
L 134.951304 138.456243 
L 71.25625 138.456243 
z
" clip-path="url(#p9fb84689ea)" style="fill: #2980b9; opacity: 0.85"/>
   </g>
   <g id="patch_17">
    <path d="M 71.25625 135.111523 
L 169.387711 135.111523 
L 169.387711 121.732643 
L 71.25625 121.732643 
z
" clip-path="url(#p9fb84689ea)" style="fill: #2980b9; opacity: 0.85"/>
   </g>
   <g id="patch_18">
    <path d="M 71.25625 118.387923 
L 198.961357 118.387923 
L 198.961357 105.009043 
L 71.25625 105.009043 
z
" clip-path="url(#p9fb84689ea)" style="fill: #2980b9; opacity: 0.85"/>
   </g>
   <g id="patch_19">
    <path d="M 71.25625 101.664323 
L 286.848684 101.664323 
L 286.848684 88.285444 
L 71.25625 88.285444 
z
" clip-path="url(#p9fb84689ea)" style="fill: #2980b9; opacity: 0.85"/>
   </g>
   <g id="patch_20">
    <path d="M 71.25625 84.940724 
L 367.399336 84.940724 
L 367.399336 71.561844 
L 71.25625 71.561844 
z
" clip-path="url(#p9fb84689ea)" style="fill: #2980b9; opacity: 0.85"/>
   </g>
   <g id="patch_21">
    <path d="M 71.25625 68.217124 
L 535.57988 68.217124 
L 535.57988 54.838245 
L 71.25625 54.838245 
z
" clip-path="url(#p9fb84689ea)" style="fill: #2980b9; opacity: 0.85"/>
   </g>
   <g id="patch_22">
    <path d="M 71.25625 51.493525 
L 538.33244 51.493525 
L 538.33244 38.114645 
L 71.25625 38.114645 
z
" clip-path="url(#p9fb84689ea)" style="fill: #2980b9; opacity: 0.85"/>
   </g>
   <g id="matplotlib.axis_1">
    <g id="xtick_1">
     <g id="line2d_1">
      <defs>
       <path id="m40dc089044" d="M 0 0 
L 0 3.5 
" style="stroke: #000000; stroke-width: 0.8"/>
      </defs>
      <g>
       <use xlink:href="#m40dc089044" x="71.25625" y="385.798281" style="stroke: #000000; stroke-width: 0.8"/>
      </g>
     </g>
     <g id="text_1">
      <!-- 0.000 -->
      <g transform="translate(56.942188 400.396719) scale(0.1 -0.1)">
       <defs>
        <path id="DejaVuSans-30" d="M 2034 4250 
Q 1547 4250 1301 3770 
Q 1056 3291 1056 2328 
Q 1056 1369 1301 889 
Q 1547 409 2034 409 
Q 2525 409 2770 889 
Q 3016 1369 3016 2328 
Q 3016 3291 2770 3770 
Q 2525 4250 2034 4250 
z
M 2034 4750 
Q 2819 4750 3233 4129 
Q 3647 3509 3647 2328 
Q 3647 1150 3233 529 
Q 2819 -91 2034 -91 
Q 1250 -91 836 529 
Q 422 1150 422 2328 
Q 422 3509 836 4129 
Q 1250 4750 2034 4750 
z
" transform="scale(0.015625)"/>
        <path id="DejaVuSans-2e" d="M 684 794 
L 1344 794 
L 1344 0 
L 684 0 
L 684 794 
z
" transform="scale(0.015625)"/>
       </defs>
       <use xlink:href="#DejaVuSans-30"/>
       <use xlink:href="#DejaVuSans-2e" x="63.623047"/>
       <use xlink:href="#DejaVuSans-30" x="95.410156"/>
       <use xlink:href="#DejaVuSans-30" x="159.033203"/>
       <use xlink:href="#DejaVuSans-30" x="222.65625"/>
      </g>
     </g>
    </g>
    <g id="xtick_2">
     <g id="line2d_2">
      <g>
       <use xlink:href="#m40dc089044" x="159.860867" y="385.798281" style="stroke: #000000; stroke-width: 0.8"/>
      </g>
     </g>
     <g id="text_2">
      <!-- 0.001 -->
      <g transform="translate(145.546805 400.396719) scale(0.1 -0.1)">
       <defs>
        <path id="DejaVuSans-31" d="M 794 531 
L 1825 531 
L 1825 4091 
L 703 3866 
L 703 4441 
L 1819 4666 
L 2450 4666 
L 2450 531 
L 3481 531 
L 3481 0 
L 794 0 
L 794 531 
z
" transform="scale(0.015625)"/>
       </defs>
       <use xlink:href="#DejaVuSans-30"/>
       <use xlink:href="#DejaVuSans-2e" x="63.623047"/>
       <use xlink:href="#DejaVuSans-30" x="95.410156"/>
       <use xlink:href="#DejaVuSans-30" x="159.033203"/>
       <use xlink:href="#DejaVuSans-31" x="222.65625"/>
      </g>
     </g>
    </g>
    <g id="xtick_3">
     <g id="line2d_3">
      <g>
       <use xlink:href="#m40dc089044" x="248.465484" y="385.798281" style="stroke: #000000; stroke-width: 0.8"/>
      </g>
     </g>
     <g id="text_3">
      <!-- 0.002 -->
      <g transform="translate(234.151422 400.396719) scale(0.1 -0.1)">
       <defs>
        <path id="DejaVuSans-32" d="M 1228 531 
L 3431 531 
L 3431 0 
L 469 0 
L 469 531 
Q 828 903 1448 1529 
Q 2069 2156 2228 2338 
Q 2531 2678 2651 2914 
Q 2772 3150 2772 3378 
Q 2772 3750 2511 3984 
Q 2250 4219 1831 4219 
Q 1534 4219 1204 4116 
Q 875 4013 500 3803 
L 500 4441 
Q 881 4594 1212 4672 
Q 1544 4750 1819 4750 
Q 2544 4750 2975 4387 
Q 3406 4025 3406 3419 
Q 3406 3131 3298 2873 
Q 3191 2616 2906 2266 
Q 2828 2175 2409 1742 
Q 1991 1309 1228 531 
z
" transform="scale(0.015625)"/>
       </defs>
       <use xlink:href="#DejaVuSans-30"/>
       <use xlink:href="#DejaVuSans-2e" x="63.623047"/>
       <use xlink:href="#DejaVuSans-30" x="95.410156"/>
       <use xlink:href="#DejaVuSans-30" x="159.033203"/>
       <use xlink:href="#DejaVuSans-32" x="222.65625"/>
      </g>
     </g>
    </g>
    <g id="xtick_4">
     <g id="line2d_4">
      <g>
       <use xlink:href="#m40dc089044" x="337.070102" y="385.798281" style="stroke: #000000; stroke-width: 0.8"/>
      </g>
     </g>
     <g id="text_4">
      <!-- 0.003 -->
      <g transform="translate(322.756039 400.396719) scale(0.1 -0.1)">
       <defs>
        <path id="DejaVuSans-33" d="M 2597 2516 
Q 3050 2419 3304 2112 
Q 3559 1806 3559 1356 
Q 3559 666 3084 287 
Q 2609 -91 1734 -91 
Q 1441 -91 1130 -33 
Q 819 25 488 141 
L 488 750 
Q 750 597 1062 519 
Q 1375 441 1716 441 
Q 2309 441 2620 675 
Q 2931 909 2931 1356 
Q 2931 1769 2642 2001 
Q 2353 2234 1838 2234 
L 1294 2234 
L 1294 2753 
L 1863 2753 
Q 2328 2753 2575 2939 
Q 2822 3125 2822 3475 
Q 2822 3834 2567 4026 
Q 2313 4219 1838 4219 
Q 1578 4219 1281 4162 
Q 984 4106 628 3988 
L 628 4550 
Q 988 4650 1302 4700 
Q 1616 4750 1894 4750 
Q 2613 4750 3031 4423 
Q 3450 4097 3450 3541 
Q 3450 3153 3228 2886 
Q 3006 2619 2597 2516 
z
" transform="scale(0.015625)"/>
       </defs>
       <use xlink:href="#DejaVuSans-30"/>
       <use xlink:href="#DejaVuSans-2e" x="63.623047"/>
       <use xlink:href="#DejaVuSans-30" x="95.410156"/>
       <use xlink:href="#DejaVuSans-30" x="159.033203"/>
       <use xlink:href="#DejaVuSans-33" x="222.65625"/>
      </g>
     </g>
    </g>
    <g id="xtick_5">
     <g id="line2d_5">
      <g>
       <use xlink:href="#m40dc089044" x="425.674719" y="385.798281" style="stroke: #000000; stroke-width: 0.8"/>
      </g>
     </g>
     <g id="text_5">
      <!-- 0.004 -->
      <g transform="translate(411.360656 400.396719) scale(0.1 -0.1)">
       <defs>
        <path id="DejaVuSans-34" d="M 2419 4116 
L 825 1625 
L 2419 1625 
L 2419 4116 
z
M 2253 4666 
L 3047 4666 
L 3047 1625 
L 3713 1625 
L 3713 1100 
L 3047 1100 
L 3047 0 
L 2419 0 
L 2419 1100 
L 313 1100 
L 313 1709 
L 2253 4666 
z
" transform="scale(0.015625)"/>
       </defs>
       <use xlink:href="#DejaVuSans-30"/>
       <use xlink:href="#DejaVuSans-2e" x="63.623047"/>
       <use xlink:href="#DejaVuSans-30" x="95.410156"/>
       <use xlink:href="#DejaVuSans-30" x="159.033203"/>
       <use xlink:href="#DejaVuSans-34" x="222.65625"/>
      </g>
     </g>
    </g>
    <g id="xtick_6">
     <g id="line2d_6">
      <g>
       <use xlink:href="#m40dc089044" x="514.279336" y="385.798281" style="stroke: #000000; stroke-width: 0.8"/>
      </g>
     </g>
     <g id="text_6">
      <!-- 0.005 -->
      <g transform="translate(499.965274 400.396719) scale(0.1 -0.1)">
       <defs>
        <path id="DejaVuSans-35" d="M 691 4666 
L 3169 4666 
L 3169 4134 
L 1269 4134 
L 1269 2991 
Q 1406 3038 1543 3061 
Q 1681 3084 1819 3084 
Q 2600 3084 3056 2656 
Q 3513 2228 3513 1497 
Q 3513 744 3044 326 
Q 2575 -91 1722 -91 
Q 1428 -91 1123 -41 
Q 819 9 494 109 
L 494 744 
Q 775 591 1075 516 
Q 1375 441 1709 441 
Q 2250 441 2565 725 
Q 2881 1009 2881 1497 
Q 2881 1984 2565 2268 
Q 2250 2553 1709 2553 
Q 1456 2553 1204 2497 
Q 953 2441 691 2322 
L 691 4666 
z
" transform="scale(0.015625)"/>
       </defs>
       <use xlink:href="#DejaVuSans-30"/>
       <use xlink:href="#DejaVuSans-2e" x="63.623047"/>
       <use xlink:href="#DejaVuSans-30" x="95.410156"/>
       <use xlink:href="#DejaVuSans-30" x="159.033203"/>
       <use xlink:href="#DejaVuSans-35" x="222.65625"/>
      </g>
     </g>
    </g>
    <g id="text_7">
     <!-- Mean |SHAP value| -->
     <g transform="translate(269.273594 414.118594) scale(0.1 -0.1)">
      <defs>
       <path id="DejaVuSans-4d" d="M 628 4666 
L 1569 4666 
L 2759 1491 
L 3956 4666 
L 4897 4666 
L 4897 0 
L 4281 0 
L 4281 4097 
L 3078 897 
L 2444 897 
L 1241 4097 
L 1241 0 
L 628 0 
L 628 4666 
z
" transform="scale(0.015625)"/>
       <path id="DejaVuSans-65" d="M 3597 1894 
L 3597 1613 
L 953 1613 
Q 991 1019 1311 708 
Q 1631 397 2203 397 
Q 2534 397 2845 478 
Q 3156 559 3463 722 
L 3463 178 
Q 3153 47 2828 -22 
Q 2503 -91 2169 -91 
Q 1331 -91 842 396 
Q 353 884 353 1716 
Q 353 2575 817 3079 
Q 1281 3584 2069 3584 
Q 2775 3584 3186 3129 
Q 3597 2675 3597 1894 
z
M 3022 2063 
Q 3016 2534 2758 2815 
Q 2500 3097 2075 3097 
Q 1594 3097 1305 2825 
Q 1016 2553 972 2059 
L 3022 2063 
z
" transform="scale(0.015625)"/>
       <path id="DejaVuSans-61" d="M 2194 1759 
Q 1497 1759 1228 1600 
Q 959 1441 959 1056 
Q 959 750 1161 570 
Q 1363 391 1709 391 
Q 2188 391 2477 730 
Q 2766 1069 2766 1631 
L 2766 1759 
L 2194 1759 
z
M 3341 1997 
L 3341 0 
L 2766 0 
L 2766 531 
Q 2569 213 2275 61 
Q 1981 -91 1556 -91 
Q 1019 -91 701 211 
Q 384 513 384 1019 
Q 384 1609 779 1909 
Q 1175 2209 1959 2209 
L 2766 2209 
L 2766 2266 
Q 2766 2663 2505 2880 
Q 2244 3097 1772 3097 
Q 1472 3097 1187 3025 
Q 903 2953 641 2809 
L 641 3341 
Q 956 3463 1253 3523 
Q 1550 3584 1831 3584 
Q 2591 3584 2966 3190 
Q 3341 2797 3341 1997 
z
" transform="scale(0.015625)"/>
       <path id="DejaVuSans-6e" d="M 3513 2113 
L 3513 0 
L 2938 0 
L 2938 2094 
Q 2938 2591 2744 2837 
Q 2550 3084 2163 3084 
Q 1697 3084 1428 2787 
Q 1159 2491 1159 1978 
L 1159 0 
L 581 0 
L 581 3500 
L 1159 3500 
L 1159 2956 
Q 1366 3272 1645 3428 
Q 1925 3584 2291 3584 
Q 2894 3584 3203 3211 
Q 3513 2838 3513 2113 
z
" transform="scale(0.015625)"/>
       <path id="DejaVuSans-20" transform="scale(0.015625)"/>
       <path id="DejaVuSans-7c" d="M 1344 4891 
L 1344 -1509 
L 813 -1509 
L 813 4891 
L 1344 4891 
z
" transform="scale(0.015625)"/>
       <path id="DejaVuSans-53" d="M 3425 4513 
L 3425 3897 
Q 3066 4069 2747 4153 
Q 2428 4238 2131 4238 
Q 1616 4238 1336 4038 
Q 1056 3838 1056 3469 
Q 1056 3159 1242 3001 
Q 1428 2844 1947 2747 
L 2328 2669 
Q 3034 2534 3370 2195 
Q 3706 1856 3706 1288 
Q 3706 609 3251 259 
Q 2797 -91 1919 -91 
Q 1588 -91 1214 -16 
Q 841 59 441 206 
L 441 856 
Q 825 641 1194 531 
Q 1563 422 1919 422 
Q 2459 422 2753 634 
Q 3047 847 3047 1241 
Q 3047 1584 2836 1778 
Q 2625 1972 2144 2069 
L 1759 2144 
Q 1053 2284 737 2584 
Q 422 2884 422 3419 
Q 422 4038 858 4394 
Q 1294 4750 2059 4750 
Q 2388 4750 2728 4690 
Q 3069 4631 3425 4513 
z
" transform="scale(0.015625)"/>
       <path id="DejaVuSans-48" d="M 628 4666 
L 1259 4666 
L 1259 2753 
L 3553 2753 
L 3553 4666 
L 4184 4666 
L 4184 0 
L 3553 0 
L 3553 2222 
L 1259 2222 
L 1259 0 
L 628 0 
L 628 4666 
z
" transform="scale(0.015625)"/>
       <path id="DejaVuSans-41" d="M 2188 4044 
L 1331 1722 
L 3047 1722 
L 2188 4044 
z
M 1831 4666 
L 2547 4666 
L 4325 0 
L 3669 0 
L 3244 1197 
L 1141 1197 
L 716 0 
L 50 0 
L 1831 4666 
z
" transform="scale(0.015625)"/>
       <path id="DejaVuSans-50" d="M 1259 4147 
L 1259 2394 
L 2053 2394 
Q 2494 2394 2734 2622 
Q 2975 2850 2975 3272 
Q 2975 3691 2734 3919 
Q 2494 4147 2053 4147 
L 1259 4147 
z
M 628 4666 
L 2053 4666 
Q 2838 4666 3239 4311 
Q 3641 3956 3641 3272 
Q 3641 2581 3239 2228 
Q 2838 1875 2053 1875 
L 1259 1875 
L 1259 0 
L 628 0 
L 628 4666 
z
" transform="scale(0.015625)"/>
       <path id="DejaVuSans-76" d="M 191 3500 
L 800 3500 
L 1894 563 
L 2988 3500 
L 3597 3500 
L 2284 0 
L 1503 0 
L 191 3500 
z
" transform="scale(0.015625)"/>
       <path id="DejaVuSans-6c" d="M 603 4863 
L 1178 4863 
L 1178 0 
L 603 0 
L 603 4863 
z
" transform="scale(0.015625)"/>
       <path id="DejaVuSans-75" d="M 544 1381 
L 544 3500 
L 1119 3500 
L 1119 1403 
Q 1119 906 1312 657 
Q 1506 409 1894 409 
Q 2359 409 2629 706 
Q 2900 1003 2900 1516 
L 2900 3500 
L 3475 3500 
L 3475 0 
L 2900 0 
L 2900 538 
Q 2691 219 2414 64 
Q 2138 -91 1772 -91 
Q 1169 -91 856 284 
Q 544 659 544 1381 
z
M 1991 3584 
L 1991 3584 
z
" transform="scale(0.015625)"/>
      </defs>
      <use xlink:href="#DejaVuSans-4d"/>
      <use xlink:href="#DejaVuSans-65" x="86.279297"/>
      <use xlink:href="#DejaVuSans-61" x="147.802734"/>
      <use xlink:href="#DejaVuSans-6e" x="209.082031"/>
      <use xlink:href="#DejaVuSans-20" x="272.460938"/>
      <use xlink:href="#DejaVuSans-7c" x="304.248047"/>
      <use xlink:href="#DejaVuSans-53" x="337.939453"/>
      <use xlink:href="#DejaVuSans-48" x="401.416016"/>
      <use xlink:href="#DejaVuSans-41" x="476.611328"/>
      <use xlink:href="#DejaVuSans-50" x="545.019531"/>
      <use xlink:href="#DejaVuSans-20" x="605.322266"/>
      <use xlink:href="#DejaVuSans-76" x="637.109375"/>
      <use xlink:href="#DejaVuSans-61" x="696.289062"/>
      <use xlink:href="#DejaVuSans-6c" x="757.568359"/>
      <use xlink:href="#DejaVuSans-75" x="785.351562"/>
      <use xlink:href="#DejaVuSans-65" x="848.730469"/>
      <use xlink:href="#DejaVuSans-7c" x="910.253906"/>
     </g>
    </g>
   </g>
   <g id="matplotlib.axis_2">
    <g id="ytick_1">
     <g id="line2d_7">
      <defs>
       <path id="m38e56b0cc1" d="M 0 0 
L -3.5 0 
" style="stroke: #000000; stroke-width: 0.8"/>
      </defs>
      <g>
       <use xlink:href="#m38e56b0cc1" x="71.25625" y="362.552478" style="stroke: #000000; stroke-width: 0.8"/>
      </g>
     </g>
     <g id="text_8">
      <!-- S1_impulse -->
      <g transform="translate(7.2 366.351697) scale(0.1 -0.1)">
       <defs>
        <path id="DejaVuSans-5f" d="M 3263 -1063 
L 3263 -1509 
L -63 -1509 
L -63 -1063 
L 3263 -1063 
z
" transform="scale(0.015625)"/>
        <path id="DejaVuSans-69" d="M 603 3500 
L 1178 3500 
L 1178 0 
L 603 0 
L 603 3500 
z
M 603 4863 
L 1178 4863 
L 1178 4134 
L 603 4134 
L 603 4863 
z
" transform="scale(0.015625)"/>
        <path id="DejaVuSans-6d" d="M 3328 2828 
Q 3544 3216 3844 3400 
Q 4144 3584 4550 3584 
Q 5097 3584 5394 3201 
Q 5691 2819 5691 2113 
L 5691 0 
L 5113 0 
L 5113 2094 
Q 5113 2597 4934 2840 
Q 4756 3084 4391 3084 
Q 3944 3084 3684 2787 
Q 3425 2491 3425 1978 
L 3425 0 
L 2847 0 
L 2847 2094 
Q 2847 2600 2669 2842 
Q 2491 3084 2119 3084 
Q 1678 3084 1418 2786 
Q 1159 2488 1159 1978 
L 1159 0 
L 581 0 
L 581 3500 
L 1159 3500 
L 1159 2956 
Q 1356 3278 1631 3431 
Q 1906 3584 2284 3584 
Q 2666 3584 2933 3390 
Q 3200 3197 3328 2828 
z
" transform="scale(0.015625)"/>
        <path id="DejaVuSans-70" d="M 1159 525 
L 1159 -1331 
L 581 -1331 
L 581 3500 
L 1159 3500 
L 1159 2969 
Q 1341 3281 1617 3432 
Q 1894 3584 2278 3584 
Q 2916 3584 3314 3078 
Q 3713 2572 3713 1747 
Q 3713 922 3314 415 
Q 2916 -91 2278 -91 
Q 1894 -91 1617 61 
Q 1341 213 1159 525 
z
M 3116 1747 
Q 3116 2381 2855 2742 
Q 2594 3103 2138 3103 
Q 1681 3103 1420 2742 
Q 1159 2381 1159 1747 
Q 1159 1113 1420 752 
Q 1681 391 2138 391 
Q 2594 391 2855 752 
Q 3116 1113 3116 1747 
z
" transform="scale(0.015625)"/>
        <path id="DejaVuSans-73" d="M 2834 3397 
L 2834 2853 
Q 2591 2978 2328 3040 
Q 2066 3103 1784 3103 
Q 1356 3103 1142 2972 
Q 928 2841 928 2578 
Q 928 2378 1081 2264 
Q 1234 2150 1697 2047 
L 1894 2003 
Q 2506 1872 2764 1633 
Q 3022 1394 3022 966 
Q 3022 478 2636 193 
Q 2250 -91 1575 -91 
Q 1294 -91 989 -36 
Q 684 19 347 128 
L 347 722 
Q 666 556 975 473 
Q 1284 391 1588 391 
Q 1994 391 2212 530 
Q 2431 669 2431 922 
Q 2431 1156 2273 1281 
Q 2116 1406 1581 1522 
L 1381 1569 
Q 847 1681 609 1914 
Q 372 2147 372 2553 
Q 372 3047 722 3315 
Q 1072 3584 1716 3584 
Q 2034 3584 2315 3537 
Q 2597 3491 2834 3397 
z
" transform="scale(0.015625)"/>
       </defs>
       <use xlink:href="#DejaVuSans-53"/>
       <use xlink:href="#DejaVuSans-31" x="63.476562"/>
       <use xlink:href="#DejaVuSans-5f" x="127.099609"/>
       <use xlink:href="#DejaVuSans-69" x="177.099609"/>
       <use xlink:href="#DejaVuSans-6d" x="204.882812"/>
       <use xlink:href="#DejaVuSans-70" x="302.294922"/>
       <use xlink:href="#DejaVuSans-75" x="365.771484"/>
       <use xlink:href="#DejaVuSans-6c" x="429.150391"/>
       <use xlink:href="#DejaVuSans-73" x="456.933594"/>
       <use xlink:href="#DejaVuSans-65" x="509.033203"/>
      </g>
     </g>
    </g>
    <g id="ytick_2">
     <g id="line2d_8">
      <g>
       <use xlink:href="#m38e56b0cc1" x="71.25625" y="345.828878" style="stroke: #000000; stroke-width: 0.8"/>
      </g>
     </g>
     <g id="text_9">
      <!-- S1_skew -->
      <g transform="translate(21.576563 349.628097) scale(0.1 -0.1)">
       <defs>
        <path id="DejaVuSans-6b" d="M 581 4863 
L 1159 4863 
L 1159 1991 
L 2875 3500 
L 3609 3500 
L 1753 1863 
L 3688 0 
L 2938 0 
L 1159 1709 
L 1159 0 
L 581 0 
L 581 4863 
z
" transform="scale(0.015625)"/>
        <path id="DejaVuSans-77" d="M 269 3500 
L 844 3500 
L 1563 769 
L 2278 3500 
L 2956 3500 
L 3675 769 
L 4391 3500 
L 4966 3500 
L 4050 0 
L 3372 0 
L 2619 2869 
L 1863 0 
L 1184 0 
L 269 3500 
z
" transform="scale(0.015625)"/>
       </defs>
       <use xlink:href="#DejaVuSans-53"/>
       <use xlink:href="#DejaVuSans-31" x="63.476562"/>
       <use xlink:href="#DejaVuSans-5f" x="127.099609"/>
       <use xlink:href="#DejaVuSans-73" x="177.099609"/>
       <use xlink:href="#DejaVuSans-6b" x="229.199219"/>
       <use xlink:href="#DejaVuSans-65" x="283.484375"/>
       <use xlink:href="#DejaVuSans-77" x="345.007812"/>
      </g>
     </g>
    </g>
    <g id="ytick_3">
     <g id="line2d_9">
      <g>
       <use xlink:href="#m38e56b0cc1" x="71.25625" y="329.105278" style="stroke: #000000; stroke-width: 0.8"/>
      </g>
     </g>
     <g id="text_10">
      <!-- S1_margin -->
      <g transform="translate(11.276563 332.904497) scale(0.1 -0.1)">
       <defs>
        <path id="DejaVuSans-72" d="M 2631 2963 
Q 2534 3019 2420 3045 
Q 2306 3072 2169 3072 
Q 1681 3072 1420 2755 
Q 1159 2438 1159 1844 
L 1159 0 
L 581 0 
L 581 3500 
L 1159 3500 
L 1159 2956 
Q 1341 3275 1631 3429 
Q 1922 3584 2338 3584 
Q 2397 3584 2469 3576 
Q 2541 3569 2628 3553 
L 2631 2963 
z
" transform="scale(0.015625)"/>
        <path id="DejaVuSans-67" d="M 2906 1791 
Q 2906 2416 2648 2759 
Q 2391 3103 1925 3103 
Q 1463 3103 1205 2759 
Q 947 2416 947 1791 
Q 947 1169 1205 825 
Q 1463 481 1925 481 
Q 2391 481 2648 825 
Q 2906 1169 2906 1791 
z
M 3481 434 
Q 3481 -459 3084 -895 
Q 2688 -1331 1869 -1331 
Q 1566 -1331 1297 -1286 
Q 1028 -1241 775 -1147 
L 775 -588 
Q 1028 -725 1275 -790 
Q 1522 -856 1778 -856 
Q 2344 -856 2625 -561 
Q 2906 -266 2906 331 
L 2906 616 
Q 2728 306 2450 153 
Q 2172 0 1784 0 
Q 1141 0 747 490 
Q 353 981 353 1791 
Q 353 2603 747 3093 
Q 1141 3584 1784 3584 
Q 2172 3584 2450 3431 
Q 2728 3278 2906 2969 
L 2906 3500 
L 3481 3500 
L 3481 434 
z
" transform="scale(0.015625)"/>
       </defs>
       <use xlink:href="#DejaVuSans-53"/>
       <use xlink:href="#DejaVuSans-31" x="63.476562"/>
       <use xlink:href="#DejaVuSans-5f" x="127.099609"/>
       <use xlink:href="#DejaVuSans-6d" x="177.099609"/>
       <use xlink:href="#DejaVuSans-61" x="274.511719"/>
       <use xlink:href="#DejaVuSans-72" x="335.791016"/>
       <use xlink:href="#DejaVuSans-67" x="375.154297"/>
       <use xlink:href="#DejaVuSans-69" x="438.630859"/>
       <use xlink:href="#DejaVuSans-6e" x="466.414062"/>
      </g>
     </g>
    </g>
    <g id="ytick_4">
     <g id="line2d_10">
      <g>
       <use xlink:href="#m38e56b0cc1" x="71.25625" y="312.381679" style="stroke: #000000; stroke-width: 0.8"/>
      </g>
     </g>
     <g id="text_11">
      <!-- S1_crest -->
      <g transform="translate(21.878125 316.092616) scale(0.1 -0.1)">
       <defs>
        <path id="DejaVuSans-63" d="M 3122 3366 
L 3122 2828 
Q 2878 2963 2633 3030 
Q 2388 3097 2138 3097 
Q 1578 3097 1268 2742 
Q 959 2388 959 1747 
Q 959 1106 1268 751 
Q 1578 397 2138 397 
Q 2388 397 2633 464 
Q 2878 531 3122 666 
L 3122 134 
Q 2881 22 2623 -34 
Q 2366 -91 2075 -91 
Q 1284 -91 818 406 
Q 353 903 353 1747 
Q 353 2603 823 3093 
Q 1294 3584 2113 3584 
Q 2378 3584 2631 3529 
Q 2884 3475 3122 3366 
z
" transform="scale(0.015625)"/>
        <path id="DejaVuSans-74" d="M 1172 4494 
L 1172 3500 
L 2356 3500 
L 2356 3053 
L 1172 3053 
L 1172 1153 
Q 1172 725 1289 603 
Q 1406 481 1766 481 
L 2356 481 
L 2356 0 
L 1766 0 
Q 1100 0 847 248 
Q 594 497 594 1153 
L 594 3053 
L 172 3053 
L 172 3500 
L 594 3500 
L 594 4494 
L 1172 4494 
z
" transform="scale(0.015625)"/>
       </defs>
       <use xlink:href="#DejaVuSans-53"/>
       <use xlink:href="#DejaVuSans-31" x="63.476562"/>
       <use xlink:href="#DejaVuSans-5f" x="127.099609"/>
       <use xlink:href="#DejaVuSans-63" x="177.099609"/>
       <use xlink:href="#DejaVuSans-72" x="232.080078"/>
       <use xlink:href="#DejaVuSans-65" x="270.943359"/>
       <use xlink:href="#DejaVuSans-73" x="332.466797"/>
       <use xlink:href="#DejaVuSans-74" x="384.566406"/>
      </g>
     </g>
    </g>
    <g id="ytick_5">
     <g id="line2d_11">
      <g>
       <use xlink:href="#m38e56b0cc1" x="71.25625" y="295.658079" style="stroke: #000000; stroke-width: 0.8"/>
      </g>
     </g>
     <g id="text_12">
      <!-- S4_skew -->
      <g transform="translate(21.576563 299.457298) scale(0.1 -0.1)">
       <use xlink:href="#DejaVuSans-53"/>
       <use xlink:href="#DejaVuSans-34" x="63.476562"/>
       <use xlink:href="#DejaVuSans-5f" x="127.099609"/>
       <use xlink:href="#DejaVuSans-73" x="177.099609"/>
       <use xlink:href="#DejaVuSans-6b" x="229.199219"/>
       <use xlink:href="#DejaVuSans-65" x="283.484375"/>
       <use xlink:href="#DejaVuSans-77" x="345.007812"/>
      </g>
     </g>
    </g>
    <g id="ytick_6">
     <g id="line2d_12">
      <g>
       <use xlink:href="#m38e56b0cc1" x="71.25625" y="278.93448" style="stroke: #000000; stroke-width: 0.8"/>
      </g>
     </g>
     <g id="text_13">
      <!-- S4_crest -->
      <g transform="translate(21.878125 282.645417) scale(0.1 -0.1)">
       <use xlink:href="#DejaVuSans-53"/>
       <use xlink:href="#DejaVuSans-34" x="63.476562"/>
       <use xlink:href="#DejaVuSans-5f" x="127.099609"/>
       <use xlink:href="#DejaVuSans-63" x="177.099609"/>
       <use xlink:href="#DejaVuSans-72" x="232.080078"/>
       <use xlink:href="#DejaVuSans-65" x="270.943359"/>
       <use xlink:href="#DejaVuSans-73" x="332.466797"/>
       <use xlink:href="#DejaVuSans-74" x="384.566406"/>
      </g>
     </g>
    </g>
    <g id="ytick_7">
     <g id="line2d_13">
      <g>
       <use xlink:href="#m38e56b0cc1" x="71.25625" y="262.21088" style="stroke: #000000; stroke-width: 0.8"/>
      </g>
     </g>
     <g id="text_14">
      <!-- S2_std -->
      <g transform="translate(31.067188 266.010099) scale(0.1 -0.1)">
       <defs>
        <path id="DejaVuSans-64" d="M 2906 2969 
L 2906 4863 
L 3481 4863 
L 3481 0 
L 2906 0 
L 2906 525 
Q 2725 213 2448 61 
Q 2172 -91 1784 -91 
Q 1150 -91 751 415 
Q 353 922 353 1747 
Q 353 2572 751 3078 
Q 1150 3584 1784 3584 
Q 2172 3584 2448 3432 
Q 2725 3281 2906 2969 
z
M 947 1747 
Q 947 1113 1208 752 
Q 1469 391 1925 391 
Q 2381 391 2643 752 
Q 2906 1113 2906 1747 
Q 2906 2381 2643 2742 
Q 2381 3103 1925 3103 
Q 1469 3103 1208 2742 
Q 947 2381 947 1747 
z
" transform="scale(0.015625)"/>
       </defs>
       <use xlink:href="#DejaVuSans-53"/>
       <use xlink:href="#DejaVuSans-32" x="63.476562"/>
       <use xlink:href="#DejaVuSans-5f" x="127.099609"/>
       <use xlink:href="#DejaVuSans-73" x="177.099609"/>
       <use xlink:href="#DejaVuSans-74" x="229.199219"/>
       <use xlink:href="#DejaVuSans-64" x="268.408203"/>
      </g>
     </g>
    </g>
    <g id="ytick_8">
     <g id="line2d_14">
      <g>
       <use xlink:href="#m38e56b0cc1" x="71.25625" y="245.48728" style="stroke: #000000; stroke-width: 0.8"/>
      </g>
     </g>
     <g id="text_15">
      <!-- S2_rms -->
      <g transform="translate(27.659375 249.198218) scale(0.1 -0.1)">
       <use xlink:href="#DejaVuSans-53"/>
       <use xlink:href="#DejaVuSans-32" x="63.476562"/>
       <use xlink:href="#DejaVuSans-5f" x="127.099609"/>
       <use xlink:href="#DejaVuSans-72" x="177.099609"/>
       <use xlink:href="#DejaVuSans-6d" x="216.462891"/>
       <use xlink:href="#DejaVuSans-73" x="313.875"/>
      </g>
     </g>
    </g>
    <g id="ytick_9">
     <g id="line2d_15">
      <g>
       <use xlink:href="#m38e56b0cc1" x="71.25625" y="228.763681" style="stroke: #000000; stroke-width: 0.8"/>
      </g>
     </g>
     <g id="text_16">
      <!-- S2_p2p -->
      <g transform="translate(27.485938 232.474618) scale(0.1 -0.1)">
       <use xlink:href="#DejaVuSans-53"/>
       <use xlink:href="#DejaVuSans-32" x="63.476562"/>
       <use xlink:href="#DejaVuSans-5f" x="127.099609"/>
       <use xlink:href="#DejaVuSans-70" x="177.099609"/>
       <use xlink:href="#DejaVuSans-32" x="240.576172"/>
       <use xlink:href="#DejaVuSans-70" x="304.199219"/>
      </g>
     </g>
    </g>
    <g id="ytick_10">
     <g id="line2d_16">
      <g>
       <use xlink:href="#m38e56b0cc1" x="71.25625" y="212.040081" style="stroke: #000000; stroke-width: 0.8"/>
      </g>
     </g>
     <g id="text_17">
      <!-- S1_var -->
      <g transform="translate(30.3875 215.751019) scale(0.1 -0.1)">
       <use xlink:href="#DejaVuSans-53"/>
       <use xlink:href="#DejaVuSans-31" x="63.476562"/>
       <use xlink:href="#DejaVuSans-5f" x="127.099609"/>
       <use xlink:href="#DejaVuSans-76" x="177.099609"/>
       <use xlink:href="#DejaVuSans-61" x="236.279297"/>
       <use xlink:href="#DejaVuSans-72" x="297.558594"/>
      </g>
     </g>
    </g>
    <g id="ytick_11">
     <g id="line2d_17">
      <g>
       <use xlink:href="#m38e56b0cc1" x="71.25625" y="195.316481" style="stroke: #000000; stroke-width: 0.8"/>
      </g>
     </g>
     <g id="text_18">
      <!-- S3_skew -->
      <g transform="translate(21.576563 199.1157) scale(0.1 -0.1)">
       <use xlink:href="#DejaVuSans-53"/>
       <use xlink:href="#DejaVuSans-33" x="63.476562"/>
       <use xlink:href="#DejaVuSans-5f" x="127.099609"/>
       <use xlink:href="#DejaVuSans-73" x="177.099609"/>
       <use xlink:href="#DejaVuSans-6b" x="229.199219"/>
       <use xlink:href="#DejaVuSans-65" x="283.484375"/>
       <use xlink:href="#DejaVuSans-77" x="345.007812"/>
      </g>
     </g>
    </g>
    <g id="ytick_12">
     <g id="line2d_18">
      <g>
       <use xlink:href="#m38e56b0cc1" x="71.25625" y="178.592882" style="stroke: #000000; stroke-width: 0.8"/>
      </g>
     </g>
     <g id="text_19">
      <!-- S1_shape -->
      <g transform="translate(16.36875 182.392101) scale(0.1 -0.1)">
       <defs>
        <path id="DejaVuSans-68" d="M 3513 2113 
L 3513 0 
L 2938 0 
L 2938 2094 
Q 2938 2591 2744 2837 
Q 2550 3084 2163 3084 
Q 1697 3084 1428 2787 
Q 1159 2491 1159 1978 
L 1159 0 
L 581 0 
L 581 4863 
L 1159 4863 
L 1159 2956 
Q 1366 3272 1645 3428 
Q 1925 3584 2291 3584 
Q 2894 3584 3203 3211 
Q 3513 2838 3513 2113 
z
" transform="scale(0.015625)"/>
       </defs>
       <use xlink:href="#DejaVuSans-53"/>
       <use xlink:href="#DejaVuSans-31" x="63.476562"/>
       <use xlink:href="#DejaVuSans-5f" x="127.099609"/>
       <use xlink:href="#DejaVuSans-73" x="177.099609"/>
       <use xlink:href="#DejaVuSans-68" x="229.199219"/>
       <use xlink:href="#DejaVuSans-61" x="292.578125"/>
       <use xlink:href="#DejaVuSans-70" x="353.857422"/>
       <use xlink:href="#DejaVuSans-65" x="417.333984"/>
      </g>
     </g>
    </g>
    <g id="ytick_13">
     <g id="line2d_19">
      <g>
       <use xlink:href="#m38e56b0cc1" x="71.25625" y="161.869282" style="stroke: #000000; stroke-width: 0.8"/>
      </g>
     </g>
     <g id="text_20">
      <!-- S4_impulse -->
      <g transform="translate(7.2 165.668501) scale(0.1 -0.1)">
       <use xlink:href="#DejaVuSans-53"/>
       <use xlink:href="#DejaVuSans-34" x="63.476562"/>
       <use xlink:href="#DejaVuSans-5f" x="127.099609"/>
       <use xlink:href="#DejaVuSans-69" x="177.099609"/>
       <use xlink:href="#DejaVuSans-6d" x="204.882812"/>
       <use xlink:href="#DejaVuSans-70" x="302.294922"/>
       <use xlink:href="#DejaVuSans-75" x="365.771484"/>
       <use xlink:href="#DejaVuSans-6c" x="429.150391"/>
       <use xlink:href="#DejaVuSans-73" x="456.933594"/>
       <use xlink:href="#DejaVuSans-65" x="509.033203"/>
      </g>
     </g>
    </g>
    <g id="ytick_14">
     <g id="line2d_20">
      <g>
       <use xlink:href="#m38e56b0cc1" x="71.25625" y="145.145683" style="stroke: #000000; stroke-width: 0.8"/>
      </g>
     </g>
     <g id="text_21">
      <!-- S4_margin -->
      <g transform="translate(11.276563 148.944901) scale(0.1 -0.1)">
       <use xlink:href="#DejaVuSans-53"/>
       <use xlink:href="#DejaVuSans-34" x="63.476562"/>
       <use xlink:href="#DejaVuSans-5f" x="127.099609"/>
       <use xlink:href="#DejaVuSans-6d" x="177.099609"/>
       <use xlink:href="#DejaVuSans-61" x="274.511719"/>
       <use xlink:href="#DejaVuSans-72" x="335.791016"/>
       <use xlink:href="#DejaVuSans-67" x="375.154297"/>
       <use xlink:href="#DejaVuSans-69" x="438.630859"/>
       <use xlink:href="#DejaVuSans-6e" x="466.414062"/>
      </g>
     </g>
    </g>
    <g id="ytick_15">
     <g id="line2d_21">
      <g>
       <use xlink:href="#m38e56b0cc1" x="71.25625" y="128.422083" style="stroke: #000000; stroke-width: 0.8"/>
      </g>
     </g>
     <g id="text_22">
      <!-- S4_kurt -->
      <g transform="translate(26.698438 132.221302) scale(0.1 -0.1)">
       <use xlink:href="#DejaVuSans-53"/>
       <use xlink:href="#DejaVuSans-34" x="63.476562"/>
       <use xlink:href="#DejaVuSans-5f" x="127.099609"/>
       <use xlink:href="#DejaVuSans-6b" x="177.099609"/>
       <use xlink:href="#DejaVuSans-75" x="231.884766"/>
       <use xlink:href="#DejaVuSans-72" x="295.263672"/>
       <use xlink:href="#DejaVuSans-74" x="336.376953"/>
      </g>
     </g>
    </g>
    <g id="ytick_16">
     <g id="line2d_22">
      <g>
       <use xlink:href="#m38e56b0cc1" x="71.25625" y="111.698483" style="stroke: #000000; stroke-width: 0.8"/>
      </g>
     </g>
     <g id="text_23">
      <!-- S4_shape -->
      <g transform="translate(16.36875 115.497702) scale(0.1 -0.1)">
       <use xlink:href="#DejaVuSans-53"/>
       <use xlink:href="#DejaVuSans-34" x="63.476562"/>
       <use xlink:href="#DejaVuSans-5f" x="127.099609"/>
       <use xlink:href="#DejaVuSans-73" x="177.099609"/>
       <use xlink:href="#DejaVuSans-68" x="229.199219"/>
       <use xlink:href="#DejaVuSans-61" x="292.578125"/>
       <use xlink:href="#DejaVuSans-70" x="353.857422"/>
       <use xlink:href="#DejaVuSans-65" x="417.333984"/>
      </g>
     </g>
    </g>
    <g id="ytick_17">
     <g id="line2d_23">
      <g>
       <use xlink:href="#m38e56b0cc1" x="71.25625" y="94.974884" style="stroke: #000000; stroke-width: 0.8"/>
      </g>
     </g>
     <g id="text_24">
      <!-- S1_p2p -->
      <g transform="translate(27.485938 98.685821) scale(0.1 -0.1)">
       <use xlink:href="#DejaVuSans-53"/>
       <use xlink:href="#DejaVuSans-31" x="63.476562"/>
       <use xlink:href="#DejaVuSans-5f" x="127.099609"/>
       <use xlink:href="#DejaVuSans-70" x="177.099609"/>
       <use xlink:href="#DejaVuSans-32" x="240.576172"/>
       <use xlink:href="#DejaVuSans-70" x="304.199219"/>
      </g>
     </g>
    </g>
    <g id="ytick_18">
     <g id="line2d_24">
      <g>
       <use xlink:href="#m38e56b0cc1" x="71.25625" y="78.251284" style="stroke: #000000; stroke-width: 0.8"/>
      </g>
     </g>
     <g id="text_25">
      <!-- S4_mean -->
      <g transform="translate(18.185938 81.962222) scale(0.1 -0.1)">
       <use xlink:href="#DejaVuSans-53"/>
       <use xlink:href="#DejaVuSans-34" x="63.476562"/>
       <use xlink:href="#DejaVuSans-5f" x="127.099609"/>
       <use xlink:href="#DejaVuSans-6d" x="177.099609"/>
       <use xlink:href="#DejaVuSans-65" x="274.511719"/>
       <use xlink:href="#DejaVuSans-61" x="336.035156"/>
       <use xlink:href="#DejaVuSans-6e" x="397.314453"/>
      </g>
     </g>
    </g>
    <g id="ytick_19">
     <g id="line2d_25">
      <g>
       <use xlink:href="#m38e56b0cc1" x="71.25625" y="61.527684" style="stroke: #000000; stroke-width: 0.8"/>
      </g>
     </g>
     <g id="text_26">
      <!-- S1_rms -->
      <g transform="translate(27.659375 65.238622) scale(0.1 -0.1)">
       <use xlink:href="#DejaVuSans-53"/>
       <use xlink:href="#DejaVuSans-31" x="63.476562"/>
       <use xlink:href="#DejaVuSans-5f" x="127.099609"/>
       <use xlink:href="#DejaVuSans-72" x="177.099609"/>
       <use xlink:href="#DejaVuSans-6d" x="216.462891"/>
       <use xlink:href="#DejaVuSans-73" x="313.875"/>
      </g>
     </g>
    </g>
    <g id="ytick_20">
     <g id="line2d_26">
      <g>
       <use xlink:href="#m38e56b0cc1" x="71.25625" y="44.804085" style="stroke: #000000; stroke-width: 0.8"/>
      </g>
     </g>
     <g id="text_27">
      <!-- S1_std -->
      <g transform="translate(31.067188 48.603303) scale(0.1 -0.1)">
       <use xlink:href="#DejaVuSans-53"/>
       <use xlink:href="#DejaVuSans-31" x="63.476562"/>
       <use xlink:href="#DejaVuSans-5f" x="127.099609"/>
       <use xlink:href="#DejaVuSans-73" x="177.099609"/>
       <use xlink:href="#DejaVuSans-74" x="229.199219"/>
       <use xlink:href="#DejaVuSans-64" x="268.408203"/>
      </g>
     </g>
    </g>
   </g>
   <g id="patch_23">
    <path d="M 71.25625 385.798281 
L 71.25625 21.558281 
" style="fill: none; stroke: #000000; stroke-width: 0.8; stroke-linejoin: miter; stroke-linecap: square"/>
   </g>
   <g id="patch_24">
    <path d="M 561.68625 385.798281 
L 561.68625 21.558281 
" style="fill: none; stroke: #000000; stroke-width: 0.8; stroke-linejoin: miter; stroke-linecap: square"/>
   </g>
   <g id="patch_25">
    <path d="M 71.25625 385.798281 
L 561.68625 385.798281 
" style="fill: none; stroke: #000000; stroke-width: 0.8; stroke-linejoin: miter; stroke-linecap: square"/>
   </g>
   <g id="patch_26">
    <path d="M 71.25625 21.558281 
L 561.68625 21.558281 
" style="fill: none; stroke: #000000; stroke-width: 0.8; stroke-linejoin: miter; stroke-linecap: square"/>
   </g>
   <g id="text_28">
    <!-- SHAP Global Feature Importance (Top 20) -->
    <g transform="translate(202.610937 15.558281) scale(0.11 -0.11)">
     <defs>
      <path id="DejaVuSans-47" d="M 3809 666 
L 3809 1919 
L 2778 1919 
L 2778 2438 
L 4434 2438 
L 4434 434 
Q 4069 175 3628 42 
Q 3188 -91 2688 -91 
Q 1594 -91 976 548 
Q 359 1188 359 2328 
Q 359 3472 976 4111 
Q 1594 4750 2688 4750 
Q 3144 4750 3555 4637 
Q 3966 4525 4313 4306 
L 4313 3634 
Q 3963 3931 3569 4081 
Q 3175 4231 2741 4231 
Q 1884 4231 1454 3753 
Q 1025 3275 1025 2328 
Q 1025 1384 1454 906 
Q 1884 428 2741 428 
Q 3075 428 3337 486 
Q 3600 544 3809 666 
z
" transform="scale(0.015625)"/>
      <path id="DejaVuSans-6f" d="M 1959 3097 
Q 1497 3097 1228 2736 
Q 959 2375 959 1747 
Q 959 1119 1226 758 
Q 1494 397 1959 397 
Q 2419 397 2687 759 
Q 2956 1122 2956 1747 
Q 2956 2369 2687 2733 
Q 2419 3097 1959 3097 
z
M 1959 3584 
Q 2709 3584 3137 3096 
Q 3566 2609 3566 1747 
Q 3566 888 3137 398 
Q 2709 -91 1959 -91 
Q 1206 -91 779 398 
Q 353 888 353 1747 
Q 353 2609 779 3096 
Q 1206 3584 1959 3584 
z
" transform="scale(0.015625)"/>
      <path id="DejaVuSans-62" d="M 3116 1747 
Q 3116 2381 2855 2742 
Q 2594 3103 2138 3103 
Q 1681 3103 1420 2742 
Q 1159 2381 1159 1747 
Q 1159 1113 1420 752 
Q 1681 391 2138 391 
Q 2594 391 2855 752 
Q 3116 1113 3116 1747 
z
M 1159 2969 
Q 1341 3281 1617 3432 
Q 1894 3584 2278 3584 
Q 2916 3584 3314 3078 
Q 3713 2572 3713 1747 
Q 3713 922 3314 415 
Q 2916 -91 2278 -91 
Q 1894 -91 1617 61 
Q 1341 213 1159 525 
L 1159 0 
L 581 0 
L 581 4863 
L 1159 4863 
L 1159 2969 
z
" transform="scale(0.015625)"/>
      <path id="DejaVuSans-46" d="M 628 4666 
L 3309 4666 
L 3309 4134 
L 1259 4134 
L 1259 2759 
L 3109 2759 
L 3109 2228 
L 1259 2228 
L 1259 0 
L 628 0 
L 628 4666 
z
" transform="scale(0.015625)"/>
      <path id="DejaVuSans-49" d="M 628 4666 
L 1259 4666 
L 1259 0 
L 628 0 
L 628 4666 
z
" transform="scale(0.015625)"/>
      <path id="DejaVuSans-28" d="M 1984 4856 
Q 1566 4138 1362 3434 
Q 1159 2731 1159 2009 
Q 1159 1288 1364 580 
Q 1569 -128 1984 -844 
L 1484 -844 
Q 1016 -109 783 600 
Q 550 1309 550 2009 
Q 550 2706 781 3412 
Q 1013 4119 1484 4856 
L 1984 4856 
z
" transform="scale(0.015625)"/>
      <path id="DejaVuSans-54" d="M -19 4666 
L 3928 4666 
L 3928 4134 
L 2272 4134 
L 2272 0 
L 1638 0 
L 1638 4134 
L -19 4134 
L -19 4666 
z
" transform="scale(0.015625)"/>
      <path id="DejaVuSans-29" d="M 513 4856 
L 1013 4856 
Q 1481 4119 1714 3412 
Q 1947 2706 1947 2009 
Q 1947 1309 1714 600 
Q 1481 -109 1013 -844 
L 513 -844 
Q 928 -128 1133 580 
Q 1338 1288 1338 2009 
Q 1338 2731 1133 3434 
Q 928 4138 513 4856 
z
" transform="scale(0.015625)"/>
     </defs>
     <use xlink:href="#DejaVuSans-53"/>
     <use xlink:href="#DejaVuSans-48" x="63.476562"/>
     <use xlink:href="#DejaVuSans-41" x="138.671875"/>
     <use xlink:href="#DejaVuSans-50" x="207.080078"/>
     <use xlink:href="#DejaVuSans-20" x="267.382812"/>
     <use xlink:href="#DejaVuSans-47" x="299.169922"/>
     <use xlink:href="#DejaVuSans-6c" x="376.660156"/>
     <use xlink:href="#DejaVuSans-6f" x="404.443359"/>
     <use xlink:href="#DejaVuSans-62" x="465.625"/>
     <use xlink:href="#DejaVuSans-61" x="529.101562"/>
     <use xlink:href="#DejaVuSans-6c" x="590.380859"/>
     <use xlink:href="#DejaVuSans-20" x="618.164062"/>
     <use xlink:href="#DejaVuSans-46" x="649.951172"/>
     <use xlink:href="#DejaVuSans-65" x="701.970703"/>
     <use xlink:href="#DejaVuSans-61" x="763.494141"/>
     <use xlink:href="#DejaVuSans-74" x="824.773438"/>
     <use xlink:href="#DejaVuSans-75" x="863.982422"/>
     <use xlink:href="#DejaVuSans-72" x="927.361328"/>
     <use xlink:href="#DejaVuSans-65" x="966.224609"/>
     <use xlink:href="#DejaVuSans-20" x="1027.748047"/>
     <use xlink:href="#DejaVuSans-49" x="1059.535156"/>
     <use xlink:href="#DejaVuSans-6d" x="1089.027344"/>
     <use xlink:href="#DejaVuSans-70" x="1186.439453"/>
     <use xlink:href="#DejaVuSans-6f" x="1249.916016"/>
     <use xlink:href="#DejaVuSans-72" x="1311.097656"/>
     <use xlink:href="#DejaVuSans-74" x="1352.210938"/>
     <use xlink:href="#DejaVuSans-61" x="1391.419922"/>
     <use xlink:href="#DejaVuSans-6e" x="1452.699219"/>
     <use xlink:href="#DejaVuSans-63" x="1516.078125"/>
     <use xlink:href="#DejaVuSans-65" x="1571.058594"/>
     <use xlink:href="#DejaVuSans-20" x="1632.582031"/>
     <use xlink:href="#DejaVuSans-28" x="1664.369141"/>
     <use xlink:href="#DejaVuSans-54" x="1703.382812"/>
     <use xlink:href="#DejaVuSans-6f" x="1747.466797"/>
     <use xlink:href="#DejaVuSans-70" x="1808.648438"/>
     <use xlink:href="#DejaVuSans-20" x="1872.125"/>
     <use xlink:href="#DejaVuSans-32" x="1903.912109"/>
     <use xlink:href="#DejaVuSans-30" x="1967.535156"/>
     <use xlink:href="#DejaVuSans-29" x="2031.158203"/>
    </g>
   </g>
  </g>
 </g>
 <defs>
  <clipPath id="p9fb84689ea">
   <rect x="71.25625" y="21.558281" width="490.43" height="364.24"/>
  </clipPath>
 </defs>
</svg>
